<svg width="100" height="100" viewBox="0 0 100 100" fill="none" xmlns="http://www.w3.org/2000/svg">
<rect width="100" height="100" rx="50" fill="#BEBEBE"/>
<path d="M29.1667 75C29.1667 75 25 75 25 70.8333C25 66.6667 29.1667 54.1667 50 54.1667C70.8333 54.1667 75 66.6667 75 70.8333C75 75 70.8333 75 70.8333 75H29.1667ZM50 50C53.3152 50 56.4946 48.683 58.8388 46.3388C61.183 43.9946 62.5 40.8152 62.5 37.5C62.5 34.1848 61.183 31.0054 58.8388 28.6612C56.4946 26.317 53.3152 25 50 25C46.6848 25 43.5054 26.317 41.1612 28.6612C38.817 31.0054 37.5 34.1848 37.5 37.5C37.5 40.8152 38.817 43.9946 41.1612 46.3388C43.5054 48.683 46.6848 50 50 50Z" fill="#252525"/>
</svg>
