<svg width="60" height="60" viewBox="0 0 60 60" fill="none" xmlns="http://www.w3.org/2000/svg">
<rect width="60" height="60" rx="10" fill="#C652EE"/>
<path d="M29.2104 15.0044C26.6738 15.0334 21.2203 15.4291 18.1701 18.0854C15.9011 20.2194 15.1089 23.3745 15.0161 27.2759C14.939 31.1632 14.8462 38.4635 22.2594 40.4513V43.4788C22.2594 43.4788 22.213 44.6902 23.0566 44.9387C24.0957 45.2509 24.6874 44.3189 25.6752 43.3175L27.5174 41.3401C32.5896 41.7405 36.4745 40.8179 36.922 40.681C37.9512 40.3687 43.7485 39.6655 44.6958 32.3643C45.6678 24.824 44.2226 20.0731 41.6139 17.9241H41.5981C40.8109 17.2359 37.647 15.0475 30.5785 15.0231C30.5785 15.0231 30.054 14.9894 29.2104 15.0034V15.0044ZM29.2973 17.1243C30.0174 17.1196 30.455 17.1487 30.455 17.1487C36.438 17.1637 39.2936 18.873 39.9673 19.4487C42.1641 21.2358 43.2961 25.5188 42.4674 31.8139C41.6801 37.9178 36.9783 38.3041 36.1081 38.5676C35.7376 38.6801 32.316 39.4808 28.0053 39.2174C28.0053 39.2174 24.7951 42.8947 23.7915 43.8417C23.6325 44.0076 23.4468 44.0564 23.3282 44.032C23.1583 43.9926 23.107 43.7929 23.1168 43.5191L23.1475 38.4945C16.8603 36.8442 17.2307 30.6175 17.2979 27.365C17.3749 24.1124 18.0179 21.4514 19.9322 19.6493C22.5094 17.4375 27.14 17.1393 29.2954 17.1243H29.2973ZM29.7715 20.376C29.7197 20.3755 29.6684 20.3847 29.6204 20.4031C29.5725 20.4216 29.5288 20.4488 29.492 20.4833C29.4552 20.5178 29.4259 20.5589 29.4059 20.6042C29.3859 20.6495 29.3755 20.6981 29.3754 20.7473C29.3754 20.9573 29.5552 21.1232 29.7715 21.1232C30.7509 21.1056 31.7242 21.2721 32.6355 21.6133C33.5467 21.9544 34.3778 22.4635 35.0808 23.111C36.516 24.434 37.2154 26.2117 37.242 28.536C37.242 28.7414 37.4169 28.912 37.6381 28.912V28.897C37.7424 28.8973 37.8426 28.8584 37.9168 28.7888C37.991 28.7193 38.0332 28.6247 38.0342 28.5257C38.0822 27.4317 37.8953 26.3398 37.4848 25.3164C37.0744 24.2931 36.4491 23.3596 35.6468 22.5728C34.0831 21.1223 32.1016 20.375 29.7715 20.375V20.376ZM24.5649 21.2358C24.2853 21.197 24.0002 21.2503 23.7569 21.3867H23.7362C23.1714 21.7009 22.6627 22.0981 22.2288 22.5634C21.8683 22.9591 21.6727 23.3595 21.6213 23.7448C21.5907 23.9745 21.6115 24.2043 21.6836 24.4237L21.7093 24.4387C22.1152 25.5713 22.6457 26.6608 23.2936 27.6866C24.1283 29.1276 25.1556 30.4604 26.3498 31.6517L26.3854 31.7005L26.4417 31.7399L26.4773 31.7792L26.5187 31.813C27.7784 32.9499 29.1858 33.9296 30.7069 34.728C32.4454 35.6263 33.5003 36.051 34.1335 36.2273V36.2367C34.3192 36.2901 34.4881 36.3145 34.658 36.3145C35.1976 36.277 35.7085 36.069 36.109 35.7238C36.597 35.3119 37.0108 34.827 37.3339 34.2883V34.2789C37.6371 33.737 37.5344 33.2241 37.0968 32.8772C36.2205 32.1501 35.2728 31.5042 34.2668 30.9485C33.5932 30.6016 32.9087 30.8116 32.6311 31.1632L32.0394 31.8711C31.7362 32.2227 31.185 32.174 31.185 32.174L31.1692 32.1834C27.059 31.1867 25.9626 27.2365 25.9626 27.2365C25.9626 27.2365 25.9113 26.6992 26.2915 26.4255L27.0324 25.8591C27.387 25.5854 27.6339 24.9365 27.2536 24.2961C26.6722 23.3399 25.9933 22.4402 25.2267 21.6099C25.0591 21.4141 24.824 21.2809 24.5629 21.2339L24.5649 21.2358ZM30.455 22.3496C29.9305 22.3496 29.9305 23.1016 30.46 23.1016C31.1122 23.1117 31.7559 23.2436 32.3544 23.4899C32.9528 23.7362 33.4943 24.0921 33.9478 24.5371C34.3615 24.9703 34.6794 25.4779 34.8827 26.0298C35.0859 26.5818 35.1704 27.1668 35.1311 27.7503C35.133 27.8491 35.1754 27.9432 35.2495 28.0126C35.3235 28.082 35.4232 28.1211 35.5272 28.1216L35.5431 28.1413C35.6479 28.1406 35.7482 28.1007 35.8223 28.0304C35.8964 27.96 35.9384 27.8648 35.9391 27.7653C35.9747 26.2754 35.4867 25.0256 34.5296 24.0242C33.5675 23.0229 32.2251 22.4612 30.5113 22.3496H30.455ZM31.104 24.3711C30.5637 24.3561 30.5429 25.1231 31.0783 25.1381C32.3802 25.2019 33.0124 25.8263 33.0953 27.1109C33.0972 27.2084 33.1391 27.3013 33.2122 27.3698C33.2853 27.4384 33.3838 27.477 33.4865 27.4775H33.5023C33.5551 27.4753 33.607 27.4632 33.6548 27.4418C33.7026 27.4205 33.7455 27.3903 33.7809 27.353C33.8163 27.3157 33.8435 27.2721 33.861 27.2248C33.8785 27.1774 33.8858 27.1272 33.8826 27.0771C33.7898 25.4025 32.8277 24.4593 31.1198 24.3721H31.104V24.3711Z" fill="white"/>
</svg>
