<svg width="60" height="60" viewBox="0 0 60 60" fill="none" xmlns="http://www.w3.org/2000/svg">
<rect width="60" height="60" rx="10" fill="#A7D91A"/>
<mask id="mask0_15_1367" style="mask-type:alpha" maskUnits="userSpaceOnUse" x="15" y="15" width="30" height="30">
<path d="M15 15H45V45H15V15Z" fill="white"/>
</mask>
<g mask="url(#mask0_15_1367)">
<path fill-rule="evenodd" clip-rule="evenodd" d="M36.7688 32.9776C36.3963 32.7913 34.57 31.8938 34.23 31.7688C33.89 31.6451 33.6425 31.5838 33.3938 31.9563C33.1463 32.3263 32.435 33.1638 32.2188 33.4113C32.0013 33.6601 31.785 33.6901 31.4138 33.5051C31.0425 33.3176 29.845 32.9263 28.4263 31.6613C27.3225 30.6763 26.5763 29.4601 26.36 29.0876C26.1438 28.7163 26.3363 28.5151 26.5225 28.3301C26.69 28.1638 26.8938 27.8963 27.08 27.6801C27.2663 27.4626 27.3275 27.3076 27.4513 27.0588C27.5763 26.8113 27.5138 26.5951 27.42 26.4088C27.3275 26.2226 26.585 24.3938 26.275 23.6501C25.9738 22.9263 25.6675 23.0251 25.44 23.0126C25.2225 23.0026 24.975 23.0001 24.7275 23.0001C24.48 23.0001 24.0775 23.0926 23.7375 23.4651C23.3963 23.8363 22.4375 24.7351 22.4375 26.5638C22.4375 28.3913 23.7675 30.1576 23.9538 30.4063C24.14 30.6538 26.5725 34.4063 30.2988 36.0151C31.1863 36.3976 31.8775 36.6263 32.4163 36.7963C33.3063 37.08 34.1163 37.0401 34.7563 36.9438C35.4688 36.8376 36.9538 36.045 37.2638 35.1776C37.5725 34.3101 37.5725 33.5663 37.48 33.4113C37.3875 33.2563 37.14 33.1638 36.7675 32.9776H36.7688ZM29.9913 42.2313H29.9863C27.773 42.2317 25.6005 41.6368 23.6963 40.5088L23.2463 40.2413L18.5688 41.4688L19.8175 36.9088L19.5238 36.4413C18.2864 34.4717 17.6316 32.1923 17.635 29.8663C17.6375 23.0538 23.18 17.5113 29.9963 17.5113C33.2963 17.5113 36.3988 18.7988 38.7313 21.1338C39.8817 22.2795 40.7936 23.642 41.4141 25.1424C42.0346 26.6428 42.3514 28.2514 42.3463 29.8751C42.3438 36.6875 36.8013 42.2313 29.9913 42.2313ZM40.5063 19.3601C39.129 17.9737 37.4903 16.8745 35.6851 16.1261C33.8799 15.3776 31.9442 14.9949 29.99 15.0001C21.7975 15.0001 15.1275 21.6688 15.125 29.8651C15.1212 32.4735 15.8055 35.0368 17.1088 37.2963L15 45L22.88 42.9326C25.0598 44.1202 27.5026 44.7425 29.985 44.7425H29.9913C38.1838 44.7425 44.8538 38.0738 44.8563 29.8763C44.8623 27.9229 44.481 25.9877 43.7343 24.1826C42.9876 22.3775 41.8905 20.7384 40.5063 19.3601Z" fill="white"/>
</g>
</svg>
