<svg width="706" height="602" viewBox="0 0 706 602" fill="none" xmlns="http://www.w3.org/2000/svg">
<path d="M487.518 124.18C487.518 124.18 497.181 107.28 520.227 109.141C520.227 109.141 553.728 80.9623 589.446 105.381C589.446 105.381 627.422 99.3257 655.537 110.605C674.307 118.124 680.484 126.04 680.484 126.04L487.518 124.18Z" fill="#F8FCFF"/>
<g opacity="0.5">
<path d="M240.778 214.651C240.778 214.651 232.224 173.729 208.861 150.893C205.772 147.846 200.545 150.419 201.02 154.732C201.02 154.811 201.02 154.891 201.06 154.97C201.971 162.291 228.423 191.34 240.778 214.651Z" fill="#C5DDFF"/>
</g>
<g opacity="0.5">
<path d="M244.381 226.246C244.381 226.246 218.721 176.38 180.666 156.672C178.33 155.484 175.4 156.236 174.132 158.492C173.301 159.956 173.063 162.212 174.41 165.497C178.053 174.362 220.978 201.472 244.381 226.246Z" fill="#C5DDFF"/>
</g>
<g opacity="0.5">
<path d="M553.253 400.025C553.253 400.025 569.409 361.439 596.653 343.432C600.257 341.057 604.89 344.54 603.623 348.695C603.583 348.774 603.583 348.853 603.543 348.893C601.286 355.977 569.805 379.485 553.253 400.025Z" fill="#C5DDFF"/>
</g>
<g opacity="0.5">
<path d="M547.511 410.751C547.511 410.751 582.12 366.663 623.264 354.473C625.759 353.721 628.491 355.027 629.362 357.521C629.916 359.143 629.718 361.36 627.738 364.367C622.432 372.362 575.151 390.844 547.511 410.751Z" fill="#C5DDFF"/>
</g>
<path d="M702.303 412.136C692.76 385.026 646.706 397.097 646.706 397.097C646.706 397.097 618.551 447.834 609.444 449.654C600.296 451.475 625.046 401.609 625.046 401.609C607.068 401.213 563.113 426.423 563.113 426.423C563.113 426.423 570.161 482.661 560.856 482.186C551.55 481.711 557.173 432.082 557.173 432.082C540.264 438.533 525.613 459.904 525.613 459.904C507.872 494.217 552.857 515.232 552.857 515.232C552.857 515.232 554.876 534.782 544.422 558.132C544.422 558.132 542.007 562.486 539.749 569.728L544.462 569.372C544.739 568.066 545.095 566.839 545.452 565.612C545.452 565.612 545.452 565.612 545.452 565.573V565.533C545.729 564.781 546.125 563.713 546.6 562.407C547.828 559.478 548.659 557.341 549.174 555.797C552.857 546.616 558.203 534.664 562.162 531.933C562.162 531.933 561.568 531.221 560.974 529.835C561.331 530.508 561.727 531.181 562.162 531.933C571.508 548.634 612.057 548.515 634.193 542.262C656.329 536.009 646.073 530.389 633.203 521.01C620.333 511.63 595.188 516.182 587.387 512.699C579.586 509.216 590.238 504.388 605.325 504.427C620.412 504.467 629.005 518.912 653.359 519.427C677.752 519.941 692.839 473.083 692.839 473.083C676.524 479.495 645.875 472.49 644.291 466.791C642.707 461.131 687.137 458.44 693.908 456.184C700.68 453.928 711.846 439.246 702.303 412.136Z" fill="#DFEBF9"/>
<path d="M63.2554 190.39C72.4423 164.31 116.754 175.945 116.754 175.945C116.754 175.945 143.839 224.743 152.63 226.524C161.421 228.304 137.622 180.259 137.622 180.259C154.927 179.863 197.219 204.163 197.219 204.163C197.219 204.163 190.447 258.303 199.396 257.828C208.346 257.353 202.96 209.585 202.96 209.585C219.236 215.798 233.333 236.338 233.333 236.338C250.44 269.385 207.118 289.608 207.118 289.608C207.118 289.608 205.178 308.407 215.236 330.886C215.236 330.886 217.572 335.081 219.75 342.046L215.196 341.73C214.919 340.503 214.602 339.276 214.206 338.128C214.206 338.128 214.206 338.128 214.206 338.089V338.049C213.929 337.337 213.573 336.308 213.098 335.041C211.91 332.231 211.118 330.174 210.643 328.67C207.118 319.844 201.931 308.327 198.129 305.715C198.129 305.715 198.684 305.043 199.238 303.697C198.882 304.33 198.525 305.003 198.129 305.715C189.14 321.783 150.096 321.704 128.792 315.649C107.487 309.633 117.347 304.212 129.742 295.188C142.136 286.165 166.331 290.558 173.816 287.194C181.3 283.83 171.044 279.199 156.55 279.239C142.057 279.279 133.781 293.17 110.299 293.684C86.8563 294.199 72.3235 249.082 72.3235 249.082C88.0443 255.256 117.545 248.488 119.05 243.027C120.555 237.565 77.8278 234.993 71.2939 232.816C64.7601 230.6 54.108 216.471 63.2554 190.39Z" fill="#DFEBF9"/>
<path d="M573.409 128.81H292.256V601.231H573.409V128.81Z" fill="#CDE0FB"/>
<path d="M596.97 186.829H573.448V187.897H596.97V186.829Z" fill="#163560"/>
<path d="M596.97 301.797H573.448V302.866H596.97V301.797Z" fill="#163560"/>
<path d="M544.502 171.592H490.647V249.557H544.502V171.592Z" fill="#AFCDFB"/>
<path d="M515.436 171.592C515.436 171.592 516.03 197.593 490.647 217.738V171.592H515.436Z" fill="#D9EAFF"/>
<path d="M520.742 171.592C520.742 171.592 520.188 197.593 544.462 217.738V171.592H520.742Z" fill="#D9EAFF"/>
<path d="M518.921 171.592H517.574V249.557H518.921V171.592Z" fill="white"/>
<path d="M544.502 194.665H490.647V195.733H544.502V194.665Z" fill="white"/>
<path d="M544.502 222.922H490.647V223.991H544.502V222.922Z" fill="white"/>
<path d="M545.729 250.784H489.419V170.365H545.729V250.784ZM491.875 248.33H543.274V172.819H491.875V248.33Z" fill="white"/>
<path d="M459.8 171.592H405.945V249.557H459.8V171.592Z" fill="#AFCDFB"/>
<path d="M430.734 171.592C430.734 171.592 431.328 197.593 405.945 217.738V171.592H430.734Z" fill="#D9EAFF"/>
<path d="M436.04 171.592C436.04 171.592 435.486 197.593 459.76 217.738V171.592H436.04Z" fill="#D9EAFF"/>
<path d="M434.219 171.592H432.872V249.557H434.219V171.592Z" fill="white"/>
<path d="M459.8 194.665H405.945V195.733H459.8V194.665Z" fill="white"/>
<path d="M459.8 222.922H405.945V223.991H459.8V222.922Z" fill="white"/>
<path d="M460.988 250.784H404.678V170.365H460.988V250.784ZM407.173 248.33H458.572V172.819H407.173V248.33Z" fill="white"/>
<path d="M375.058 171.592H321.203V249.557H375.058V171.592Z" fill="#AFCDFB"/>
<path d="M346.031 171.592C346.031 171.592 346.625 197.593 321.243 217.738V171.592H346.031Z" fill="#D9EAFF"/>
<path d="M351.338 171.592C351.338 171.592 350.783 197.593 375.058 217.738V171.592H351.338Z" fill="#D9EAFF"/>
<path d="M349.477 171.592H348.13V249.557H349.477V171.592Z" fill="white"/>
<path d="M375.058 194.665H321.203V195.733H375.058V194.665Z" fill="white"/>
<path d="M375.058 222.922H321.203V223.991H375.058V222.922Z" fill="white"/>
<path d="M376.285 250.784H319.975V170.365H376.285V250.784ZM322.431 248.33H373.83V172.819H322.431V248.33Z" fill="white"/>
<path d="M544.502 288.658H490.647V366.623H544.502V288.658Z" fill="#AFCDFB"/>
<path d="M515.436 288.658C515.436 288.658 516.03 314.66 490.647 334.804V288.658H515.436Z" fill="#D9EAFF"/>
<path d="M520.742 288.658C520.742 288.658 520.188 314.66 544.462 334.804V288.658H520.742Z" fill="#D9EAFF"/>
<path d="M518.921 288.658H517.574V366.623H518.921V288.658Z" fill="white"/>
<path d="M544.502 311.731H490.647V312.8H544.502V311.731Z" fill="white"/>
<path d="M544.502 339.989H490.647V341.057H544.502V339.989Z" fill="white"/>
<path d="M545.729 367.85H489.419V287.431H545.729V367.85ZM491.875 365.396H543.274V289.885H491.875V365.396Z" fill="white"/>
<path d="M459.8 288.658H405.945V366.623H459.8V288.658Z" fill="#AFCDFB"/>
<path d="M430.734 288.658C430.734 288.658 431.328 314.66 405.945 334.804V288.658H430.734Z" fill="#D9EAFF"/>
<path d="M436.04 288.658C436.04 288.658 435.486 314.66 459.76 334.804V288.658H436.04Z" fill="#D9EAFF"/>
<path d="M434.219 288.658H432.872V366.623H434.219V288.658Z" fill="white"/>
<path d="M459.8 311.731H405.945V312.8H459.8V311.731Z" fill="white"/>
<path d="M459.8 339.989H405.945V341.057H459.8V339.989Z" fill="white"/>
<path d="M460.988 367.85H404.678V287.431H460.988V367.85ZM407.173 365.396H458.572V289.885H407.173V365.396Z" fill="white"/>
<path d="M375.058 288.658H321.203V366.623H375.058V288.658Z" fill="#AFCDFB"/>
<path d="M346.031 288.658C346.031 288.658 346.625 314.66 321.243 334.804V288.658H346.031Z" fill="#D9EAFF"/>
<path d="M351.338 288.658C351.338 288.658 350.783 314.66 375.058 334.804V288.658H351.338Z" fill="#D9EAFF"/>
<path d="M349.477 288.658H348.13V366.623H349.477V288.658Z" fill="white"/>
<path d="M375.058 311.731H321.203V312.8H375.058V311.731Z" fill="white"/>
<path d="M375.058 339.989H321.203V341.057H375.058V339.989Z" fill="white"/>
<path d="M376.285 367.85H319.975V287.431H376.285V367.85ZM322.431 365.396H373.83V289.885H322.431V365.396Z" fill="white"/>
<path d="M459.8 405.724H405.945V483.689H459.8V405.724Z" fill="#AFCDFB"/>
<path d="M430.734 405.724C430.734 405.724 431.328 431.726 405.945 451.87V405.724H430.734Z" fill="#D9EAFF"/>
<path d="M436.04 405.724C436.04 405.724 435.486 431.726 459.76 451.87V405.724H436.04Z" fill="#D9EAFF"/>
<path d="M434.219 405.724H432.872V483.689H434.219V405.724Z" fill="white"/>
<path d="M459.8 428.797H405.945V429.866H459.8V428.797Z" fill="white"/>
<path d="M459.8 457.055H405.945V458.123H459.8V457.055Z" fill="white"/>
<path d="M460.988 484.877H404.678V404.458H460.988V484.877ZM407.173 482.463H458.572V406.951H407.173V482.463Z" fill="white"/>
<path d="M375.058 405.724H321.203V483.689H375.058V405.724Z" fill="#AFCDFB"/>
<path d="M346.031 405.724C346.031 405.724 346.625 431.726 321.243 451.87V405.724H346.031Z" fill="#D9EAFF"/>
<path d="M351.338 405.724C351.338 405.724 350.783 431.726 375.058 451.87V405.724H351.338Z" fill="#D9EAFF"/>
<path d="M349.477 405.724H348.13V483.689H349.477V405.724Z" fill="white"/>
<path d="M375.058 428.797H321.203V429.866H375.058V428.797Z" fill="white"/>
<path d="M375.058 457.055H321.203V458.123H375.058V457.055Z" fill="white"/>
<path d="M376.285 484.877H319.975V404.458H376.285V484.877ZM322.431 482.463H373.83V406.951H322.431V482.463Z" fill="white"/>
<path d="M578.042 536.603H289.128V601.191H578.042V536.603Z" fill="#AFCDFB"/>
<path d="M383.294 223.476L383.175 577.485C383.175 589.121 373.751 598.54 362.109 598.54L176.944 598.461C165.302 598.461 155.877 589.041 155.877 577.406L155.996 223.397C155.996 211.762 165.421 202.343 177.063 202.343L362.227 202.422C373.869 202.422 383.294 211.841 383.294 223.476Z" fill="#739AF0"/>
<path d="M362.109 601.191L176.944 601.112C163.876 601.112 153.224 590.466 153.224 577.406L153.343 223.397C153.343 210.337 163.995 199.691 177.063 199.691L362.227 199.77C375.295 199.77 385.947 210.416 385.947 223.476L385.828 577.485C385.789 590.545 375.176 601.191 362.109 601.191ZM177.063 204.994C166.886 204.994 158.649 213.266 158.649 223.397L158.53 577.406C158.53 587.577 166.807 595.809 176.944 595.809L362.109 595.888C372.286 595.888 380.522 587.617 380.522 577.485L380.641 223.476C380.641 213.305 372.365 205.073 362.227 205.073L177.063 204.994Z" fill="#163560"/>
<path d="M363.217 428.323V559.32C363.217 568.027 356.169 575.071 347.457 575.071H194.961C186.289 575.071 179.241 568.027 179.241 559.32V428.323C179.241 419.616 186.289 412.571 194.961 412.571H347.457C348.605 412.571 349.714 412.69 350.783 412.927C357.911 414.471 363.217 420.764 363.217 428.323Z" fill="#EBF2FF"/>
<path d="M352.526 399.392H189.972C184.072 399.392 179.28 394.604 179.28 388.707V335.081C179.28 329.184 184.072 324.395 189.972 324.395H352.526C358.426 324.395 363.217 329.184 363.217 335.081V388.707C363.217 394.604 358.426 399.392 352.526 399.392Z" fill="#EBF2FF"/>
<path d="M289.643 353.76H245.252C244.698 353.76 244.262 353.325 244.262 352.771C244.262 352.217 244.698 351.782 245.252 351.782H289.643C290.197 351.782 290.633 352.217 290.633 352.771C290.633 353.325 290.197 353.76 289.643 353.76Z" fill="#2B478B"/>
<path d="M319.342 360.923H245.252C244.698 360.923 244.262 360.488 244.262 359.934C244.262 359.381 244.698 358.945 245.252 358.945H319.342C319.896 358.945 320.332 359.381 320.332 359.934C320.332 360.488 319.896 360.923 319.342 360.923Z" fill="#2B478B"/>
<path d="M234.442 342.442H191.992V384.868H234.442V342.442Z" fill="#C2CFFF"/>
<path d="M199.872 373.747L209.138 357.046L215.949 366.346L219.355 362.626L226.601 373.747H199.872Z" fill="#AABDF2"/>
<path d="M213.573 354.632C213.573 353.326 214.642 352.217 215.988 352.217C217.295 352.217 218.404 353.286 218.404 354.632C218.404 355.977 217.335 357.046 215.988 357.046C214.642 357.046 213.573 355.977 213.573 354.632Z" fill="#AABDF2"/>
<path d="M317.956 346.796H245.133C244.579 346.796 244.143 346.36 244.143 345.806V343.432C244.143 342.878 244.579 342.442 245.133 342.442H317.956C318.51 342.442 318.946 342.878 318.946 343.432V345.806C318.946 346.36 318.51 346.796 317.956 346.796Z" fill="#2B478B"/>
<path d="M254.993 372.995L261.13 373.866L256.696 378.179L257.765 384.274L252.261 381.385L246.796 384.274L247.865 378.179L243.431 373.905L249.528 372.995L252.261 367.454L254.993 372.995Z" fill="#A7D91A"/>
<path d="M276.178 372.995L282.276 373.866L277.881 378.179L278.91 384.274L273.446 381.385L267.982 384.274L269.011 378.179L264.616 373.905L270.714 372.995L273.446 367.454L276.178 372.995Z" fill="#A7D91A"/>
<path d="M297.364 372.995L303.462 373.866L299.066 378.179L300.096 384.274L294.631 381.385L289.167 384.274L290.197 378.179L285.762 373.905L291.899 372.995L294.631 367.454L297.364 372.995Z" fill="#A7D91A"/>
<path d="M318.549 372.995L324.647 373.866L320.212 378.179L321.281 384.274L315.817 381.385L310.352 384.274L311.382 378.179L306.947 373.905L313.085 372.995L315.777 367.454L318.549 372.995Z" fill="#A7D91A"/>
<path d="M339.695 372.995L345.833 373.866L341.398 378.179L342.467 384.274L337.002 381.385L331.538 384.274L332.568 378.179L328.133 373.905L334.231 372.995L336.963 367.454L339.695 372.995Z" fill="#A7D91A"/>
<path d="M352.526 312.483H189.972C184.072 312.483 179.28 307.694 179.28 301.797V248.132C179.28 242.235 184.072 237.447 189.972 237.447H352.526C358.426 237.447 363.217 242.235 363.217 248.132V301.758C363.217 307.694 358.426 312.483 352.526 312.483Z" fill="#EBF2FF"/>
<path d="M289.643 266.851H245.252C244.698 266.851 244.262 266.416 244.262 265.862C244.262 265.308 244.698 264.873 245.252 264.873H289.643C290.197 264.873 290.633 265.308 290.633 265.862C290.633 266.376 290.197 266.851 289.643 266.851Z" fill="#2B478B"/>
<path d="M319.342 274.014H245.252C244.698 274.014 244.262 273.579 244.262 273.025C244.262 272.471 244.698 272.036 245.252 272.036H319.342C319.896 272.036 320.332 272.471 320.332 273.025C320.332 273.579 319.896 274.014 319.342 274.014Z" fill="#2B478B"/>
<path d="M234.442 255.533H191.992V297.959H234.442V255.533Z" fill="#C2CFFF"/>
<path d="M199.872 286.838L209.138 270.136L215.949 279.397L219.355 275.677L226.601 286.838H199.872Z" fill="#AABDF2"/>
<path d="M213.573 267.722C213.573 266.416 214.642 265.308 215.988 265.308C217.295 265.308 218.404 266.377 218.404 267.722C218.404 269.028 217.335 270.136 215.988 270.136C214.642 270.136 213.573 269.068 213.573 267.722Z" fill="#AABDF2"/>
<path d="M317.956 259.847H245.133C244.579 259.847 244.143 259.411 244.143 258.857V256.483C244.143 255.929 244.579 255.493 245.133 255.493H317.956C318.51 255.493 318.946 255.929 318.946 256.483V258.857C318.946 259.411 318.51 259.847 317.956 259.847Z" fill="#2B478B"/>
<path d="M254.993 286.046L261.13 286.956L256.696 291.27L257.765 297.325L252.261 294.476L246.796 297.365L247.865 291.27L243.431 286.956L249.528 286.086L252.261 280.545L254.993 286.046Z" fill="#A7D91A"/>
<path d="M276.178 286.046L282.276 286.956L277.881 291.27L278.91 297.325L273.446 294.476L267.982 297.365L269.011 291.27L264.616 286.956L270.714 286.086L273.446 280.545L276.178 286.046Z" fill="#A7D91A"/>
<path d="M297.364 286.046L303.462 286.956L299.066 291.27L300.096 297.325L294.631 294.476L289.167 297.365L290.197 291.27L285.762 286.956L291.899 286.086L294.631 280.545L297.364 286.046Z" fill="#A7D91A"/>
<path d="M318.549 286.046L324.647 286.956L320.212 291.27L321.281 297.325L315.817 294.476L310.352 297.365L311.382 291.27L306.947 286.956L313.085 286.086L315.777 280.545L318.549 286.046Z" fill="#A7D91A"/>
<path d="M339.695 286.046L345.833 286.956L341.398 291.27L342.467 297.325L337.002 294.476L331.538 297.365L332.568 291.27L328.133 286.956L334.231 286.086L336.963 280.545L339.695 286.046Z" fill="#A7D91A"/>
<g opacity="0.3">
<path d="M248.024 462.556C246.797 462.398 245.569 462.318 244.342 462.318C244.144 462.318 243.946 462.318 243.748 462.318C228.7 462.635 216.583 474.943 216.583 490.061C216.583 491.526 216.702 492.95 216.9 494.375C218.959 507.475 230.126 517.527 243.708 517.804C243.906 517.804 244.104 517.804 244.302 517.804C245.569 517.804 246.797 517.725 247.985 517.567C260.142 515.944 269.843 506.446 271.744 494.375C271.942 492.95 272.061 491.526 272.061 490.061C272.1 475.972 261.607 464.337 248.024 462.556ZM248.024 508.385C246.836 508.623 245.609 508.741 244.342 508.741C244.144 508.741 243.946 508.741 243.748 508.741C235.155 508.464 228.066 502.409 226.166 494.375C225.849 492.99 225.651 491.565 225.651 490.061C225.651 479.93 233.689 471.698 243.748 471.381C243.946 471.381 244.144 471.381 244.342 471.381C245.609 471.381 246.836 471.5 248.024 471.738C256.578 473.439 263.032 480.998 263.032 490.061C263.032 491.526 262.874 492.99 262.517 494.375C260.854 501.42 255.192 506.96 248.024 508.385Z" fill="#739AF0"/>
<path d="M225.611 490.061C225.611 491.526 225.77 492.99 226.126 494.375H191.714V490.061H225.611Z" fill="#739AF0"/>
<path d="M350.823 490.061V494.375H262.557C262.874 492.99 263.072 491.565 263.072 490.061H350.823Z" fill="#739AF0"/>
<path d="M248.024 418.508V471.738C246.836 471.5 245.608 471.381 244.341 471.381C244.143 471.381 243.945 471.381 243.747 471.381V418.508H248.024Z" fill="#739AF0"/>
<path d="M248.024 508.385V565.889H243.708V508.741C243.906 508.741 244.104 508.741 244.302 508.741C245.609 508.741 246.836 508.623 248.024 508.385Z" fill="#739AF0"/>
<path d="M346.507 418.508V492.99V497.027H350.823V492.99V418.864L346.507 418.508Z" fill="#739AF0"/>
<path d="M302.116 418.508H297.8V565.889H302.116V418.508Z" fill="#739AF0"/>
<path d="M275.031 423.969H253.687V457.094H275.031V423.969Z" fill="#739AF0"/>
<path d="M212.464 448.902H191.675V472.687H212.464V448.902Z" fill="#739AF0"/>
<path d="M233.531 423.969H191.675V444.747H233.531V423.969Z" fill="#739AF0"/>
<path d="M293.562 423.969H278.634V444.549H293.562V423.969Z" fill="#739AF0"/>
<path d="M293.562 448.902H278.634V483.294H293.562V448.902Z" fill="#739AF0"/>
<path d="M293.562 498.451H278.634V518.833H293.562V498.451Z" fill="#739AF0"/>
<path d="M323.737 423.969H311.699V483.294H323.737V423.969Z" fill="#739AF0"/>
<path d="M342.586 423.969H327.658V483.294H342.586V423.969Z" fill="#739AF0"/>
<path d="M350.823 500.628H309.442V565.929H350.823V500.628Z" fill="#739AF0"/>
<path d="M293.523 541.194H252.34V565.889H293.523V541.194Z" fill="#739AF0"/>
<path d="M293.523 523.464H252.34V536.563H293.523V523.464Z" fill="#739AF0"/>
<path d="M228.66 523.464H191.675V565.889H228.66V523.464Z" fill="#739AF0"/>
<path d="M207.236 496.671H191.675V519.546H207.236V496.671Z" fill="#739AF0"/>
</g>
<path d="M103.25 583.897H96.2809V593.395H103.25V583.897Z" fill="#163560"/>
<path d="M142.651 583.897H135.682V593.395H142.651V583.897Z" fill="#163560"/>
<path d="M94.8158 594.819C94.8158 592.089 97.0332 589.872 99.7654 589.872C102.498 589.872 104.715 592.089 104.715 594.819C104.715 597.55 102.498 599.766 99.7654 599.766C97.0332 599.766 94.8158 597.55 94.8158 594.819Z" fill="#1F4777"/>
<path d="M96.756 594.82C96.756 593.157 98.1023 591.812 99.7654 591.812C101.428 591.812 102.775 593.157 102.775 594.82C102.775 596.482 101.428 597.827 99.7654 597.827C98.1023 597.827 96.756 596.482 96.756 594.82Z" fill="#163560"/>
<path d="M134.216 594.819C134.216 592.089 136.434 589.872 139.166 589.872C141.898 589.872 144.116 592.089 144.116 594.819C144.116 597.55 141.898 599.766 139.166 599.766C136.434 599.766 134.216 597.55 134.216 594.819Z" fill="#1F4777"/>
<path d="M136.157 594.82C136.157 593.157 137.503 591.812 139.166 591.812C140.829 591.812 142.176 593.157 142.176 594.82C142.176 596.482 140.829 597.827 139.166 597.827C137.503 597.827 136.157 596.482 136.157 594.82Z" fill="#163560"/>
<path d="M155.877 589.2H83.7674C76.8376 589.2 71.2542 583.58 71.2542 576.694V575.071H167.44V577.643C167.48 584.015 162.292 589.2 155.877 589.2Z" fill="#323232"/>
<path d="M170.766 456.303V571.034C170.766 572.419 170.608 573.765 170.331 575.071H156.867C154.769 575.071 152.828 575.665 151.205 576.733C150.175 577.366 149.304 578.198 148.551 579.147C147.166 580.928 146.334 583.184 146.334 585.638V589.2H93.5485V585.638C93.5485 581.957 91.6478 578.712 88.7966 576.812C88.0047 576.298 87.0939 575.863 86.1435 575.546C85.1535 575.229 84.0844 575.071 82.9756 575.071H68.4032C68.126 573.765 67.9676 572.419 67.9676 571.034V456.303C67.9676 446.251 76.0854 438.137 86.1435 438.137H152.591C162.649 438.137 170.766 446.251 170.766 456.303Z" fill="#F76748"/>
<path d="M138.731 438.058C126.297 433.151 115.922 433.388 109.428 434.457C102.379 435.605 98.2211 437.979 98.1419 437.979L97.2707 436.475C97.4291 436.357 101.706 433.982 109.032 432.755C115.763 431.647 126.495 431.37 139.364 436.436L138.731 438.058Z" fill="#163560"/>
<path d="M88.7964 438.137V576.812C88.0044 576.298 87.0937 575.863 86.1434 575.546V438.137H88.7964Z" fill="#163560"/>
<path d="M109.982 438.137H107.329V589.239H109.982V438.137Z" fill="#163560"/>
<path d="M129.781 438.137H127.128V589.239H129.781V438.137Z" fill="#163560"/>
<path d="M151.165 438.137V576.733C150.135 577.366 149.264 578.198 148.512 579.147V438.137H151.165Z" fill="#163560"/>
<path d="M10.5493 378.734C10.5493 378.536 13.4398 372.56 12.5291 372.085C11.6184 371.61 9.95531 371.689 9.75732 372.758C9.55933 373.787 10.5493 378.734 10.5493 378.734Z" fill="#FFB27D"/>
<path d="M11.6179 382.295C11.6179 381.702 10.9448 372.758 9.44006 370.937C7.93538 369.156 4.84682 366.623 3.85689 366.702C2.86696 366.782 -0.934357 371.847 0.213958 375.686C1.36227 379.565 6.1931 384.789 6.1931 384.789L11.6179 382.295Z" fill="#FFB27D"/>
<path d="M17.399 371.412L8.56884 374.064C8.29167 374.143 7.97488 373.984 7.89569 373.707L2.86688 356.927C2.78769 356.65 2.94606 356.333 3.22324 356.254L12.0534 353.603C12.3306 353.524 12.6473 353.682 12.7265 353.959L17.7554 370.739C17.8742 371.016 17.7158 371.333 17.399 371.412Z" fill="#FF896F"/>
<path d="M15.1025 372.124L7.10385 374.539C6.58908 374.697 6.03473 374.38 5.87635 373.866L1.08511 357.877C0.926726 357.362 1.24348 356.808 1.75824 356.65L9.75685 354.236C10.2716 354.078 10.826 354.394 10.9844 354.909L15.7756 370.898C15.934 371.412 15.6172 371.966 15.1025 372.124Z" fill="#F76748"/>
<path d="M2.94604 367.375C2.94604 367.375 6.62857 361.716 7.49971 362.032C8.76681 362.468 4.17357 369.631 4.17357 369.631C4.17357 369.631 7.57891 364.288 8.13327 364.684C9.36078 365.594 7.42052 368.958 5.48027 371.531C5.48027 371.531 8.92521 368.404 9.044 368.958C9.43997 370.937 5.28228 375.726 5.28228 375.726L2.94604 370.423V367.375Z" fill="#FFB27D"/>
<path d="M0.213806 372.599C0.372194 371.926 1.28293 358.431 1.6789 359.697C2.07487 360.964 2.9856 368.048 2.9856 368.048L0.213806 372.599Z" fill="#FFB27D"/>
<path d="M58.7808 368.879C58.7808 368.879 58.3848 383.522 54.1873 395.356C50.861 404.696 45.1191 412.255 35.259 409.484C34.269 409.207 33.279 408.891 32.3287 408.574C12.3312 401.609 5.87659 385.659 5.87659 385.659C7.38135 383.206 11.6976 382.295 11.6976 382.295C15.7367 382.493 33.4375 390.013 34.5462 390.25C38.6249 391.081 41.9512 368.602 44.6043 360.806C47.2575 353.009 58.1472 349.526 58.1472 349.526L58.7808 368.879Z" fill="#739AF0"/>
<path d="M54.5437 384.789L54.1477 395.356C50.8214 404.696 45.0796 412.255 35.2194 409.484C34.2295 409.207 33.2395 408.891 32.2891 408.574C32.6059 408.614 38.6249 409.445 41.1593 406.912C43.7332 404.3 43.4956 395.712 48.2475 390.013C53.039 384.274 54.5437 384.789 54.5437 384.789Z" fill="#5283DB"/>
<path d="M55.098 577.92C55.098 577.92 60.0083 582.393 59.0579 585.598C58.1076 588.804 53.6725 590.901 53.0389 594.819C52.4449 598.738 50.0294 600.835 47.891 600.835C45.7131 600.835 37.5953 600.835 37.5953 600.835C37.5953 600.835 36.0114 598.104 39.8524 597.273C43.6935 596.442 45.1587 591.851 44.9211 587.617C44.6835 583.382 45.2775 577.683 45.2775 577.683L53.4349 575.783L55.098 577.92Z" fill="#0B2442"/>
<path d="M0.887207 600.004H31.22C32.408 600.004 33.3979 599.054 33.4375 597.867C33.4771 596.086 33.3187 593.514 32.3684 591.337C30.7448 587.735 29.7152 587.102 36.5658 576.694C34.5067 578.791 28.9628 577.841 24.2902 577.208C23.7358 578.118 15.024 591.535 13.1233 592.92C10.9453 594.424 1.52079 593.87 0.887207 600.004Z" fill="#0B2442"/>
<path d="M48.1288 431.884C48.1288 431.884 26.1513 473.36 20.1719 496.196C15.5388 513.926 43.8521 582.511 43.8521 582.511C43.8521 582.511 46.1488 582.353 49.9503 580.889C53.6726 579.424 55.0586 575.546 55.0586 575.546C55.0586 575.546 53.3954 526.511 47.6536 502.765C46.3864 497.423 53.8706 480.247 66.5819 470.867C79.2535 461.448 84.5598 431.172 76.9964 429.154C69.433 427.135 48.1288 431.884 48.1288 431.884Z" fill="#163560"/>
<path d="M66.9778 420.13C66.9778 420.13 43.8521 504.823 36.843 523.859C29.834 542.896 18.7067 583.263 18.7067 583.263C18.7067 583.263 25.7553 586.548 34.7443 585.005C34.7443 585.005 68.5618 535.495 70.0269 513.649C70.7001 503.517 104.716 463.466 100.914 437.306L66.9778 420.13Z" fill="#1C468A"/>
<path d="M100.835 446.567C100.835 446.567 95.9246 449.06 87.2129 449.773C77.2735 450.604 62.3447 449.14 44.1688 439.048C44.1688 439.048 39.1001 434.892 45.3172 417.122C50.0294 403.706 52.3262 375.37 58.068 349.566C58.068 349.566 76.7191 343.709 91.6875 348.774C103.132 352.653 101.983 370.185 104.082 388.43C104.28 390.131 104.518 391.833 104.755 393.535C107.963 413.521 100.835 446.567 100.835 446.567Z" fill="#739AF0"/>
<path d="M51.5341 311.335C51.5341 311.335 64.285 290.637 74.1451 301.283C74.1451 301.283 80.5998 302.945 84.2825 312.958C88.0444 323.208 82.1837 332.232 78.2634 330.767C75.7687 329.817 74.5807 334.171 74.5807 334.171L51.5341 311.335Z" fill="#233862"/>
<path d="M72.1652 299.621C72.1652 299.621 73.0363 291.033 85.5885 291.864C85.5885 291.864 79.649 291.983 78.3819 294.436C78.3819 294.436 82.698 291.666 85.8261 293.012C88.9543 294.357 90.3006 300.254 90.1422 302.114C89.9838 303.974 87.5684 309.831 85.4302 310.148C83.3315 310.465 80.5597 308.961 80.5597 308.961L72.1652 299.621Z" fill="#233862"/>
<path d="M78.5003 348.22C77.3124 345.094 75.5701 341.809 74.1446 331.757L73.3922 332.034L60.7212 336.506C60.7212 336.506 61.5923 340.543 62.1863 344.421C62.4239 346.004 62.5823 348.814 62.701 351.268C62.8198 353.801 65.2749 354.038 67.8091 353.919C74.501 353.563 78.1835 351.07 78.5003 348.22Z" fill="#FFB27D"/>
<path d="M60.7212 336.466C60.7212 336.466 61.5923 340.503 62.1863 344.381C69.4325 343.115 72.3231 335.912 73.3922 331.994L60.7212 336.466Z" fill="#E8945B"/>
<path d="M74.5412 330.411C74.5412 330.411 77.5111 323.841 77.6695 318.538C77.7882 314.778 73.9472 301.362 60.4835 305.32C60.4835 305.32 56.5632 306.269 53.1577 309.356C50.465 311.81 46.7823 316.757 53.3161 327.997L55.1377 331.836L74.5412 330.411Z" fill="#233862"/>
<path d="M58.8203 340.503C58.8203 340.503 76.1251 338.287 74.5807 327.562C73.0364 316.836 74.2243 309.317 63.1366 310.267C52.0489 311.217 50.465 315.61 50.1086 319.33C49.7522 323.01 54.3061 340.78 58.8203 340.503Z" fill="#FFB27D"/>
<path d="M55.2565 311.098C55.2565 311.098 61.7904 323.01 69.3142 323.841C76.838 324.672 79.6891 322.258 79.6891 322.258C79.6891 322.258 73.5116 318.657 71.2149 311.098C71.2149 311.098 57.9493 304.607 55.2565 311.098Z" fill="#233862"/>
<path d="M56.5629 311.969C56.5629 311.969 53.4347 315.293 52.9595 318.142C52.4844 320.992 52.9199 326.691 51.2569 326.73C51.2569 326.73 46.4656 318.696 49.7522 313.274C53.2763 307.496 56.5629 311.969 56.5629 311.969Z" fill="#233862"/>
<path d="M55.9692 312.483C55.9692 312.483 61.2357 325.187 70.9765 328.116C70.9765 328.116 60.6813 321.308 58.6222 312.72C56.5632 304.132 55.9692 312.483 55.9692 312.483Z" fill="#233862"/>
<path d="M100.835 446.567C100.835 446.567 95.9245 449.06 87.2128 449.773C87.2128 449.773 80.085 440.829 88.0443 430.776C96.0037 420.724 87.4108 402.242 93.5486 392.15C97.8253 385.145 101.983 386.767 104.122 388.43C104.32 390.131 104.557 391.833 104.795 393.535C107.963 413.521 100.835 446.567 100.835 446.567Z" fill="#5283DB"/>
<path d="M132.237 431.647C132.237 431.647 133.306 434.101 134.771 434.259C137.186 434.536 141.78 436.554 142.532 436.99C144.472 438.137 144.353 443.362 142.413 443.836C140.473 444.311 139.483 439.958 133.345 438.81C131.286 438.415 128.237 439.839 127.01 434.892L132.237 431.647Z" fill="#FFB27D"/>
<path d="M91.7271 348.735C109.547 355.265 110.18 386.807 118.14 400.698C126.337 415.025 134.296 433.863 134.296 433.863C134.296 433.863 134.138 434.417 131.088 435.288C128.95 435.921 126.693 435.644 126.693 435.644C126.693 435.644 109.863 420.447 105.31 414.431C100.756 408.416 89.9451 380.594 89.9451 380.594C89.9451 380.594 84.6389 346.123 91.7271 348.735Z" fill="#739AF0"/>
<path d="M127.406 436.119C127.406 436.119 127.841 438.256 130.455 439.958C133.068 441.66 135.167 443.401 135.444 442.333C135.681 441.264 133.979 440.116 133.583 438.177C133.187 436.198 127.406 436.119 127.406 436.119Z" fill="#FFB27D"/>
<path d="M583.981 145.313H283.148L299.186 74.0761H567.944L583.981 145.313Z" fill="#F76748"/>
<path d="M365.434 95.2097H337.834V122.794H365.434V95.2097Z" fill="#BDD1F9"/>
<path d="M336.567 93.9433V124.061H366.702V93.9433H336.567ZM364.128 121.528H339.101V96.5158H364.128V121.528Z" fill="#163560"/>
<path d="M352.875 122.812V95.2272H350.381V122.812H352.875Z" fill="#163560"/>
<path d="M371.018 88.7984H331.063V94.5765H371.018V88.7984Z" fill="#163560"/>
<path d="M447.563 95.2097H419.962V122.794H447.563V95.2097Z" fill="#BDD1F9"/>
<path d="M418.656 93.9433V124.061H448.79V93.9433H418.656ZM446.256 121.528H421.23V96.5158H446.256V121.528Z" fill="#163560"/>
<path d="M434.993 122.822V95.237H432.499V122.822H434.993Z" fill="#163560"/>
<path d="M452.829 88.7984H412.874V94.5765H452.829V88.7984Z" fill="#163560"/>
<path d="M529.374 95.2097H501.774V122.794H529.374V95.2097Z" fill="#BDD1F9"/>
<path d="M500.467 93.9433V124.061H530.602V93.9433H500.467ZM528.067 121.528H503.041V96.5158H528.067V121.528Z" fill="#163560"/>
<path d="M516.808 122.818V95.2332H514.314V122.818H516.808Z" fill="#163560"/>
<path d="M534.641 88.7984H494.686V94.5765H534.641V88.7984Z" fill="#163560"/>
<path d="M395.711 601.148H434.993C437.092 599.367 433.528 595.291 429.806 595.053C428.182 594.934 426.163 595.251 423.826 595.765C423.272 588.602 420.183 556.308 408.541 557.614C395.473 559.078 408.541 571.822 412.224 579.381C414.956 584.961 417.847 592.995 419.193 596.795C418.124 597.032 417.015 597.269 415.907 597.467C414.164 592.164 407.71 574.236 399.513 575.265C389.89 576.492 393.731 583.655 400.582 587.929C405.611 591.056 411.749 595.528 414.679 597.665C412.184 598.061 409.61 598.338 406.997 598.298C400.265 598.1 396.978 600.079 395.711 601.148Z" fill="#A8D29F"/>
<path d="M613.836 602H584.216C582.632 600.654 585.325 597.607 588.137 597.409C589.364 597.33 590.909 597.568 592.651 597.963C593.047 592.541 595.383 568.242 604.135 569.231C613.995 570.339 604.135 579.956 601.363 585.616C599.304 589.85 597.126 595.866 596.136 598.715C596.928 598.874 597.759 599.071 598.63 599.23C599.937 595.232 604.808 581.737 610.985 582.529C618.232 583.439 615.341 588.861 610.193 592.066C606.431 594.441 601.798 597.765 599.581 599.388C601.442 599.705 603.382 599.903 605.362 599.863C610.391 599.705 612.886 601.208 613.836 602Z" fill="#A8D29F"/>
<path d="M436.832 344.263C438.217 347.983 440.633 352.336 443.167 353.405C446.018 354.632 447.246 356.373 447.246 356.373L449.542 355.027L452.314 353.405C452.314 353.405 452.235 353.088 452.116 352.613C451.997 352.099 451.76 351.426 451.482 350.634C451.482 350.634 450.651 349.526 451.166 348.181C451.68 346.796 451.562 344.698 450.69 343.392C449.819 342.086 448.948 338.92 448.433 339.039C447.127 339.276 449.067 343.629 448.513 344.421C447.998 345.133 447.404 344.896 447.285 344.856C447.285 344.856 447.285 344.856 447.246 344.856C443.603 343.273 439.207 334.685 437.267 335.833C436.554 336.268 436.277 342.68 436.832 344.263Z" fill="#FF9C7D"/>
<path d="M449.383 349.447L444.83 352.653C444.513 352.89 444.077 352.811 443.84 352.495L432.198 335.952C431.961 335.635 432.04 335.2 432.357 334.962L436.91 331.757C437.227 331.519 437.663 331.598 437.9 331.915L449.542 348.458C449.779 348.774 449.74 349.249 449.383 349.447Z" fill="#2B478B"/>
<path d="M445.226 352.376L442.573 354.236C442.335 354.394 441.979 354.355 441.82 354.117L429.981 337.297C429.822 337.06 429.862 336.704 430.1 336.545L432.753 334.685C432.99 334.527 433.347 334.567 433.505 334.804L445.344 351.624C445.542 351.861 445.503 352.218 445.226 352.376Z" fill="#233862"/>
<path d="M514.604 325.701C514.604 325.701 491.478 366.03 483.083 373.43L452.315 350.516C452.315 350.516 447.84 351.901 445.9 356.373C445.9 356.373 469.54 394.445 482.964 396.028C501.299 398.165 527.157 350.437 527.157 350.437L514.604 325.701Z" fill="#233862"/>
<path d="M557.806 600.558H571.151C572.814 599.648 574.319 597.55 574.794 594.424C575.428 590.11 580.259 587.775 581.328 584.253C582.358 580.73 577.012 575.783 577.012 575.783L576.101 574.636L575.19 573.448L566.32 575.546C566.32 575.546 566.082 577.643 565.964 580.335C565.884 582.274 565.805 584.53 565.924 586.469C566.201 591.179 564.617 596.205 560.459 597.115C557.371 597.827 557.529 599.648 557.806 600.558Z" fill="#2D4C7F"/>
<path d="M489.379 599.885H519.95C521.415 598.104 520.86 591.495 520.662 589.318C520.623 588.883 520.583 588.646 520.583 588.646C520.583 588.646 510.169 580.295 508.703 586.706C508.664 586.904 508.624 587.102 508.545 587.3C506.723 593.276 498.645 596.007 493.973 596.759C490.923 597.194 489.815 598.777 489.379 599.885Z" fill="#2D4C7F"/>
<path d="M495.2 429.431C495.2 429.431 496.784 449.179 498.645 472.925C501.18 505.179 504.229 544.795 504.506 552.315C505.021 565.335 507.12 586.192 507.12 586.192C507.12 586.192 512.069 591.139 521.969 589.041C521.969 589.041 530.8 559.28 533.334 527.777C533.374 527.263 533.413 526.748 533.453 526.234C535.789 494.177 539.432 426.66 539.432 426.66L495.2 429.431Z" fill="#F76748"/>
<path d="M495.2 429.431C495.2 429.431 496.784 449.179 498.645 472.925L533.334 527.817C533.374 527.303 533.413 526.788 533.453 526.274C535.789 494.217 539.432 426.7 539.432 426.7L495.2 429.431Z" fill="#F76748"/>
<path d="M502.962 426.185C502.962 426.185 526.919 499.203 543.432 533.793C559.945 568.383 565.172 578.079 565.172 578.079C565.172 578.079 575.942 574.359 577.051 571.509C577.051 571.509 571.349 510.799 559.905 494.296C553.45 484.996 549.094 453.255 549.253 443.876C549.411 434.496 548.342 415.816 548.342 415.816L502.962 426.185Z" fill="#F76748"/>
<path d="M509.535 327.443C520.702 330.965 539.987 321.467 539.987 321.467C539.987 321.467 529.691 313.749 530.245 297.721L521.613 304.687L515.752 309.396C515.752 309.396 515.792 312.166 516.425 317.074V317.113C516.742 319.567 515.752 321.981 513.812 323.485C511.079 325.504 509.535 327.443 509.535 327.443Z" fill="#FFB27D"/>
<path d="M515.792 309.396C515.792 309.396 515.831 312.166 516.465 317.074C522.959 315.966 530.324 305.478 530.324 305.478C526.998 304.528 524.107 304.37 521.652 304.687L515.792 309.396Z" fill="#E8945B"/>
<path d="M512.347 309.119C512.347 309.119 530.76 312.166 532.503 300.689C534.245 289.173 537.769 281.851 526.088 279.397C514.406 276.944 511.436 281.02 509.931 284.701C508.427 288.381 507.635 308.011 512.347 309.119Z" fill="#FFB27D"/>
<path d="M493.973 431.053C494.29 431.33 494.686 431.489 495.161 431.489C499.358 431.449 511.555 433.744 521.93 432.715C530.641 431.884 538.363 429.312 546.639 425.592C547.748 425.117 550.283 423.732 550.203 422.505C550.164 421.159 550.045 419.22 549.847 416.766C549.253 408.218 548.223 393.535 549.253 376.557C549.451 373.391 549.53 370.264 549.53 367.177C549.609 344.184 545.055 323.96 535.908 317.113C535.116 316.559 530.325 318.894 525.89 321.071C521.811 323.089 518.682 323.287 514.802 322.496L510.01 325.939C505.298 330.292 500.19 336.229 497.933 345.213C496.032 352.851 494.923 366.663 494.29 380.95C494.012 387.44 493.775 393.97 493.735 400.144V400.382C493.696 401.015 493.696 401.648 493.696 402.281C493.458 418.231 493.696 430.816 493.973 431.053Z" fill="#2B478B"/>
<path d="M549.846 416.766C549.252 408.218 548.223 393.535 549.252 376.557C549.45 373.391 549.529 370.264 549.529 367.177C545.728 357.917 542.6 351.228 542.6 351.228H532.978C532.978 351.189 525.93 399.353 549.846 416.766Z" fill="#233862"/>
<path d="M532.542 299.581C532.542 299.581 530.642 299.265 530.958 296.653C531.275 294.04 531.275 290.637 529.137 291.27C527.038 291.903 526.919 293.605 526.048 292.616C525.177 291.626 525.177 287.471 518.841 287.154C512.545 286.877 509.971 289.054 507.041 287.787C504.11 286.481 503.952 282.049 503.952 282.049C503.952 282.049 504.783 283.632 506.051 284.146C506.051 284.146 501.18 277.458 506.803 272.867C512.466 268.276 518.247 271.284 521.534 271.482C528.741 271.917 533.413 272.353 535.789 277.102C538.165 281.851 537.175 295.03 532.542 299.581Z" fill="#2B478B"/>
<path d="M672.92 591.851C672.366 595.413 675.019 599.569 678.9 601.072C682.78 602.576 686.383 600.914 686.977 597.352C687.532 593.79 684.879 589.635 680.998 588.131C677.118 586.588 673.514 588.25 672.92 591.851Z" fill="#1C468A"/>
<path d="M623.659 591.93C623.105 595.492 625.758 599.648 629.638 601.152C633.519 602.655 637.122 600.993 637.716 597.431C638.271 593.87 635.618 589.714 631.737 588.21C627.857 586.706 624.214 588.368 623.659 591.93Z" fill="#1C468A"/>
<path d="M686.899 590.941L678.068 594.542C677.158 594.899 676.168 595.096 675.138 595.096L619.581 594.622L610.869 584.332L686.899 590.941Z" fill="#739AF0"/>
<path d="M629.995 471.935L608.731 440.829L608.691 440.749C608.572 440.472 605.167 433.824 587.189 432.003H587.11L572.299 429.985C570.399 429.629 564.855 428.995 562.4 430.301C561.291 430.855 560.895 431.766 561.133 433.072C561.608 435.644 575.745 455.828 585.13 468.769L582.358 469.482C579.942 466.157 558.796 436.911 558.123 433.19C557.767 431.251 558.519 429.747 560.38 428.797C564.419 426.7 572.141 428.006 572.973 428.164L587.585 430.143C606.949 432.082 611.225 439.443 611.661 440.275L632.846 471.302L629.995 471.935Z" fill="#1C468A"/>
<path d="M593.564 465.762L565.211 471.935C565.211 471.935 557.41 475.577 563.191 491.249C568.26 505.021 594.791 582.393 594.791 582.393C594.791 582.393 600.335 598.5 632.648 593.751L593.564 465.762Z" fill="#739AF0"/>
<path d="M582.437 487.093L612.73 573.725C613.958 577.248 615.977 580.453 618.551 583.145C623.303 588.131 629.797 591.376 636.173 591.416L663.971 591.535H664.644L682.028 591.614C683.771 591.614 685.394 591.376 686.899 590.941C687.255 590.822 687.572 590.743 687.928 590.585C693.433 588.527 696.759 583.501 696.878 577.327C696.917 574.715 696.403 571.865 695.215 568.976L661.318 486.104C657.715 477.278 648.924 470.511 640.053 469.68L635.024 469.205L633.836 469.086L632.846 469.007L616.056 467.424L613.997 467.226L597.801 465.722C595.267 465.485 592.931 465.762 590.872 466.395C590.753 466.434 590.594 466.474 590.476 466.514L589.644 466.83C582.556 469.838 579.229 477.911 582.437 487.093Z" fill="#83B0FF"/>
<g opacity="0.5">
<path d="M618.551 583.145C623.303 588.131 629.797 591.376 636.173 591.416L663.971 591.535H664.644L682.028 591.614C683.771 591.614 685.394 591.376 686.899 590.941C687.255 590.822 687.572 590.743 687.928 590.585C693.433 588.527 698.422 581.047 696.482 573.132C696.482 573.132 637.598 572.459 625.837 574.438C619.779 575.467 619.066 580.018 618.551 583.145Z" fill="#739AF0"/>
</g>
<path d="M632.847 468.967C633.005 469.046 647.934 477.041 651.419 484.125C655.022 491.367 688.364 575.981 688.681 576.812C688.721 576.891 691.136 585.044 686.068 591.178L686.899 590.941C687.256 590.822 687.572 590.743 687.929 590.585C692.522 584.253 689.79 576.971 689.671 576.654C688.285 573.171 655.972 491.169 652.329 483.848C649.161 477.436 638.43 471.065 635.025 469.165L633.837 469.046L632.847 468.967Z" fill="#739AF0"/>
<path d="M613.958 467.226C616.136 468.492 624.61 473.993 628.728 484.164C633.559 496.077 662.704 582.67 662.981 583.54L663.021 583.619L663.061 583.659C663.1 583.699 665.278 588.369 663.259 591.574H663.971H664.645C666.506 588.171 664.328 583.976 664.011 583.422C663.1 580.73 634.51 495.879 629.718 484.046C626.154 475.299 619.502 469.838 616.017 467.463L613.958 467.226Z" fill="#739AF0"/>
<path d="M589.604 466.83C589.684 466.87 592.733 468.413 595.742 471.065C598.752 473.756 602.316 477.872 604.652 483.69C609.483 495.602 637.123 581.878 637.4 582.749L637.44 582.828L637.479 582.907C637.519 582.947 639.103 588.25 637.083 591.416H638.826C640.251 588.527 638.786 583.263 638.43 582.63C637.559 579.86 610.473 495.365 605.681 483.531C601.167 472.41 592.653 467.345 590.872 466.355C590.753 466.395 590.594 466.434 590.476 466.474L589.604 466.83Z" fill="#739AF0"/>
<path d="M569.409 413.125C569.409 413.125 570.636 421.951 570.715 423.098C571.309 430.855 570.201 431.607 574.438 432.992C575.626 433.388 578.793 433.388 580.615 431.132C580.615 431.132 577.645 430.935 578.16 426.66C578.754 421.753 578.437 423.138 575.467 419.141L574.754 411.78L569.409 413.125Z" fill="#FF9C7D"/>
<path d="M573.408 420.605C569.924 421.278 566.201 421.001 566.201 421.001C566.201 421.001 555.906 389.261 554.599 386.332C553.292 383.443 524.029 349.091 524.029 349.091L536.225 318.617C536.225 318.617 567.825 371.412 571.072 378.813C576.378 391.081 578.2 418.547 578.2 418.547C578.2 418.547 576.141 420.091 573.408 420.605Z" fill="#2B478B"/>
<path d="M570.716 423.098C570.716 423.098 569.963 425.038 569.924 425.948C569.844 428.877 569.013 430.222 569.528 430.46C570.597 430.974 571.666 428.718 572.102 426.739C572.537 424.761 570.716 423.098 570.716 423.098Z" fill="#FF9C7D"/>
<path d="M355.06 226.801C355.06 225.495 353.991 224.426 352.684 224.426C351.377 224.426 350.308 225.495 350.308 226.801C350.308 228.107 351.377 229.175 352.684 229.175C353.991 229.175 355.06 228.146 355.06 226.801Z" fill="#163560"/>
<path d="M356.921 224.268C356.723 224.268 356.525 224.189 356.366 224.07C355.099 222.883 353.832 222.328 352.526 222.368C350.506 222.447 349.041 223.991 349.041 224.03C348.764 224.347 348.249 224.386 347.932 224.07C347.616 223.793 347.576 223.278 347.893 222.962C347.972 222.883 349.793 220.904 352.486 220.785C354.228 220.706 355.931 221.418 357.515 222.922C357.832 223.239 357.832 223.714 357.554 224.03C357.356 224.189 357.158 224.268 356.921 224.268Z" fill="#163560"/>
<path d="M359.415 220.825C359.217 220.825 359.019 220.745 358.861 220.627C356.762 218.687 354.624 217.698 352.406 217.817C349.001 217.936 346.586 220.548 346.546 220.587C346.269 220.904 345.754 220.943 345.437 220.627C345.12 220.35 345.081 219.835 345.358 219.519C345.477 219.4 348.209 216.392 352.288 216.234C354.941 216.115 357.475 217.223 359.89 219.479C360.207 219.796 360.207 220.271 359.93 220.587C359.811 220.745 359.613 220.825 359.415 220.825Z" fill="#163560"/>
<path d="M362.028 217.461C361.83 217.461 361.632 217.382 361.474 217.263C358.504 214.492 355.416 213.147 352.288 213.266C347.417 213.463 344.012 217.184 343.972 217.223C343.695 217.54 343.18 217.579 342.863 217.263C342.547 216.986 342.507 216.471 342.784 216.155C342.943 215.996 346.665 211.92 352.208 211.683C355.812 211.524 359.257 213.028 362.543 216.115C362.86 216.432 362.86 216.907 362.583 217.223C362.424 217.382 362.226 217.461 362.028 217.461Z" fill="#163560"/>
<path d="M199.752 216.747H184.23C183.676 216.747 183.201 216.273 183.201 215.719C183.201 215.165 183.676 214.69 184.23 214.69H199.752C200.307 214.69 200.782 215.165 200.782 215.719C200.821 216.273 200.346 216.747 199.752 216.747Z" fill="#163560"/>
<path d="M199.752 221.299H184.23C183.676 221.299 183.201 220.824 183.201 220.27C183.201 219.716 183.676 219.242 184.23 219.242H199.752C200.306 219.242 200.782 219.716 200.782 220.27C200.821 220.824 200.346 221.299 199.752 221.299Z" fill="#163560"/>
<path d="M199.752 226.166H184.23C183.676 226.166 183.201 225.692 183.201 225.138C183.201 224.584 183.676 224.109 184.23 224.109H199.752C200.306 224.109 200.782 224.584 200.782 225.138C200.821 225.731 200.346 226.166 199.752 226.166Z" fill="#163560"/>
<path d="M13.6775 81.7143C13.6775 81.7143 19.3797 71.5432 33.0018 72.6513C33.0018 72.6513 52.7616 55.6731 73.8283 70.3955C73.8283 70.3955 96.2413 66.7545 112.833 73.5616C123.881 78.1128 127.564 82.862 127.564 82.862L13.6775 81.7143Z" fill="#F8FCFF"/>
<path d="M106.735 38.5762C106.735 38.5762 119.407 15.8991 149.74 18.3924C149.74 18.3924 193.774 -19.4029 240.698 13.3662C240.698 13.3662 290.593 5.25306 327.539 20.4107C352.169 30.5027 360.327 41.1091 360.327 41.1091L106.735 38.5762Z" fill="#F8FCFF"/>
<path d="M64.285 124.18C64.285 124.18 73.9471 107.28 96.9937 109.141C96.9937 109.141 130.494 80.9623 166.213 105.381C166.213 105.381 204.188 99.3257 232.303 110.605C251.073 118.124 257.251 126.04 257.251 126.04L64.285 124.18Z" fill="#F8FCFF"/>
<path d="M283.544 494.019C297.497 494.019 308.808 482.714 308.808 468.769C308.808 454.824 297.497 443.52 283.544 443.52C269.591 443.52 258.28 454.824 258.28 468.769C258.28 482.714 269.591 494.019 283.544 494.019Z" fill="#EBF2FF"/>
<path d="M245.648 472.292C246.361 494.058 284.178 527.579 284.178 527.579C284.178 527.579 319.658 491.605 318.946 469.838C318.233 448.071 301.205 431.014 280.97 431.686C260.735 432.359 244.935 450.564 245.648 472.292ZM260.616 469.482C260.22 457.609 269.605 447.596 281.485 447.161C293.444 446.765 303.383 456.144 303.819 468.017C304.215 479.969 294.909 489.903 282.95 490.338C271.071 490.734 261.052 481.434 260.616 469.482Z" fill="#F76748"/>
<path d="M621.878 331.415H605.92C600.611 331.415 596.243 327.086 596.243 321.744V177.212C596.243 171.906 600.574 167.54 605.92 167.54H621.878C627.187 167.54 631.555 171.869 631.555 177.212V321.744C631.555 327.086 627.187 331.415 621.878 331.415Z" fill="white" stroke="#163560"/>
<path d="M619.316 188.194C619.316 186.984 619.107 186.082 618.688 185.488C618.27 184.872 617.741 184.454 617.102 184.234C616.486 184.014 615.88 183.915 615.285 183.937L613.138 183.97C612.676 183.97 612.279 184.036 611.949 184.168C611.619 184.278 611.365 184.542 611.189 184.96C611.013 185.356 610.925 185.983 610.925 186.841V191.461L612.907 191.395C615.065 191.329 616.805 191.472 618.127 191.824C619.47 192.176 620.494 192.682 621.199 193.343C621.926 193.981 622.41 194.718 622.652 195.554C622.917 196.39 623.049 197.27 623.049 198.194C623.049 199.646 622.696 200.878 621.992 201.89C621.309 202.88 620.362 203.628 619.151 204.134C617.939 204.641 616.563 204.894 615.021 204.894H603.789V202.715C604.296 202.693 604.714 202.627 605.044 202.517C605.397 202.407 605.661 202.154 605.837 201.758C606.035 201.362 606.135 200.724 606.135 199.844V187.204C606.135 186.61 606.146 186.038 606.168 185.488C606.212 184.938 606.245 184.52 606.267 184.234C605.914 184.256 605.474 184.278 604.945 184.3C604.417 184.3 604.031 184.311 603.789 184.333V181.792H621.298L621.463 188.194H619.316ZM610.925 199.646C610.925 200.24 610.914 200.801 610.892 201.329C610.87 201.857 610.837 202.264 610.793 202.55C611.189 202.55 611.563 202.55 611.916 202.55C612.268 202.55 612.621 202.55 612.973 202.55C613.325 202.528 613.667 202.517 613.997 202.517C615.341 202.451 616.321 202.011 616.937 201.197C617.554 200.383 617.862 199.338 617.862 198.062C617.862 196.918 617.653 196.038 617.235 195.422C616.816 194.806 616.277 194.377 615.616 194.135C614.977 193.893 614.305 193.772 613.601 193.772C613.05 193.772 612.577 193.772 612.18 193.772C611.784 193.75 611.365 193.761 610.925 193.805V199.646Z" fill="#2F70D9"/>
<path d="M615.071 227.489C615.027 227.181 614.994 226.928 614.972 226.73C614.972 226.51 614.961 226.257 614.939 225.971C614.19 226.719 613.397 227.247 612.56 227.555C611.723 227.863 610.875 228.017 610.016 228.017C608.607 228.017 607.506 227.599 606.713 226.763C605.92 225.927 605.523 224.882 605.523 223.628C605.523 222.572 605.788 221.67 606.316 220.922C606.867 220.174 607.583 219.569 608.464 219.107C609.367 218.623 610.358 218.259 611.437 218.017C612.538 217.753 613.639 217.599 614.74 217.555V215.839C614.74 215.267 614.663 214.75 614.509 214.288C614.377 213.826 614.135 213.463 613.782 213.199C613.452 212.935 612.979 212.814 612.362 212.836C611.943 212.858 611.536 212.946 611.139 213.1C610.743 213.254 610.402 213.474 610.115 213.76C610.292 213.958 610.402 214.178 610.446 214.42C610.49 214.64 610.512 214.838 610.512 215.014C610.512 215.454 610.336 215.916 609.983 216.4C609.631 216.862 609.069 217.082 608.298 217.06C607.638 217.038 607.131 216.807 606.779 216.367C606.426 215.927 606.25 215.41 606.25 214.816C606.25 213.936 606.559 213.177 607.175 212.539C607.814 211.879 608.662 211.373 609.719 211.021C610.776 210.647 611.943 210.46 613.221 210.46C615.159 210.46 616.656 210.966 617.714 211.978C618.793 212.968 619.332 214.563 619.332 216.763C619.332 217.511 619.332 218.149 619.332 218.677C619.332 219.206 619.321 219.734 619.299 220.262C619.299 220.79 619.299 221.428 619.299 222.176C619.299 222.484 619.288 222.924 619.266 223.496C619.244 224.046 619.211 224.574 619.167 225.08C619.542 225.036 619.938 225.014 620.356 225.014C620.775 224.992 621.094 224.981 621.314 224.981V227.489H615.071ZM614.707 219.899C614.091 219.965 613.507 220.075 612.956 220.229C612.406 220.383 611.921 220.592 611.503 220.856C611.106 221.12 610.787 221.439 610.545 221.813C610.325 222.187 610.215 222.605 610.215 223.067C610.237 223.683 610.435 224.123 610.809 224.387C611.184 224.651 611.613 224.783 612.098 224.783C612.604 224.783 613.078 224.673 613.518 224.453C613.959 224.233 614.355 223.947 614.707 223.595C614.707 223.375 614.707 223.166 614.707 222.968C614.707 222.748 614.707 222.528 614.707 222.308C614.707 221.912 614.707 221.516 614.707 221.12C614.707 220.702 614.707 220.295 614.707 219.899Z" fill="#2F70D9"/>
<path d="M612.362 235.729C611.767 235.729 611.327 235.85 611.04 236.092C610.776 236.334 610.6 236.675 610.512 237.115C610.446 237.555 610.413 238.072 610.413 238.666V244.771C610.413 245.08 610.402 245.52 610.38 246.092C610.358 246.642 610.325 247.17 610.281 247.676C610.633 247.632 611.018 247.61 611.437 247.61C611.877 247.588 612.208 247.577 612.428 247.577V250.085H603.773V247.94C604.389 247.94 604.83 247.819 605.094 247.577C605.358 247.335 605.524 246.994 605.59 246.554C605.678 246.092 605.722 245.575 605.722 245.002V238.897C605.722 238.589 605.733 238.149 605.755 237.577C605.777 237.005 605.81 236.477 605.854 235.993C605.502 236.015 605.116 236.037 604.698 236.059C604.279 236.081 603.949 236.092 603.707 236.092V233.584H612.362V235.729ZM617.251 236.356L618.837 238.006L609.356 247.115L607.737 245.432L617.251 236.356ZM623.065 235.729C622.471 235.729 622.03 235.85 621.744 236.092C621.48 236.334 621.304 236.675 621.215 237.115C621.149 237.555 621.116 238.072 621.116 238.666V244.771C621.116 245.08 621.105 245.52 621.083 246.092C621.061 246.642 621.028 247.17 620.984 247.676C621.337 247.632 621.722 247.61 622.14 247.61C622.581 247.588 622.911 247.577 623.132 247.577V250.085H614.476V247.94C615.093 247.94 615.533 247.819 615.798 247.577C616.062 247.335 616.227 246.994 616.293 246.554C616.381 246.092 616.425 245.575 616.425 245.002V238.897C616.425 238.589 616.436 238.149 616.458 237.577C616.48 237.005 616.513 236.477 616.557 235.993C616.205 236.015 615.82 236.037 615.401 236.059C614.983 236.081 614.652 236.092 614.41 236.092V233.584H623.065V235.729Z" fill="#2F70D9"/>
<path d="M604.334 272.153V270.007C604.951 270.007 605.391 269.886 605.656 269.644C605.942 269.402 606.118 269.061 606.184 268.621C606.272 268.159 606.316 267.642 606.316 267.07V260.965C606.316 260.657 606.327 260.217 606.349 259.645C606.371 259.072 606.404 258.544 606.448 258.06C606.096 258.082 605.711 258.104 605.292 258.126C604.874 258.148 604.543 258.159 604.301 258.159V255.651H612.957V257.796C612.34 257.796 611.888 257.917 611.602 258.159C611.338 258.401 611.173 258.742 611.107 259.182C611.041 259.623 611.008 260.14 611.008 260.734V262.285H612.593L614.972 259.546C615.258 259.237 615.489 258.973 615.666 258.753C615.864 258.533 616.062 258.335 616.26 258.159H614.509V255.651H621.943V257.763C621.171 257.851 620.489 258.038 619.894 258.324C619.3 258.588 618.782 258.907 618.342 259.281C617.923 259.656 617.559 260.019 617.251 260.371L615.137 262.714C615.468 262.89 615.787 263.132 616.095 263.44C616.426 263.726 616.822 264.177 617.284 264.793L619.498 267.697C619.63 267.851 619.795 268.06 619.993 268.324C620.213 268.588 620.456 268.852 620.72 269.116C620.984 269.358 621.271 269.567 621.579 269.743C621.887 269.919 622.207 270.007 622.537 270.007V272.153H618.738C618.033 272.153 617.417 271.911 616.888 271.427C616.359 270.92 615.754 270.205 615.071 269.281C614.675 268.753 614.256 268.192 613.816 267.598C613.397 266.982 613 266.41 612.626 265.882C612.274 265.332 611.988 264.903 611.768 264.595L611.008 264.628V266.839C611.008 267.147 610.996 267.587 610.975 268.159C610.952 268.709 610.919 269.237 610.876 269.743C611.228 269.699 611.613 269.677 612.032 269.677C612.45 269.655 612.78 269.644 613.023 269.644V272.153H604.334Z" fill="#2F70D9"/>
<path d="M615.071 294.748C615.027 294.44 614.994 294.187 614.972 293.989C614.972 293.769 614.961 293.516 614.939 293.23C614.19 293.978 613.397 294.506 612.56 294.814C611.723 295.122 610.875 295.276 610.016 295.276C608.607 295.276 607.506 294.858 606.713 294.022C605.92 293.186 605.523 292.141 605.523 290.887C605.523 289.831 605.788 288.929 606.316 288.181C606.867 287.433 607.583 286.828 608.464 286.366C609.367 285.882 610.358 285.519 611.437 285.276C612.538 285.012 613.639 284.858 614.74 284.814V283.098C614.74 282.526 614.663 282.009 614.509 281.547C614.377 281.085 614.135 280.722 613.782 280.458C613.452 280.194 612.979 280.073 612.362 280.095C611.943 280.117 611.536 280.205 611.139 280.359C610.743 280.513 610.402 280.733 610.115 281.019C610.292 281.217 610.402 281.437 610.446 281.679C610.49 281.899 610.512 282.097 610.512 282.273C610.512 282.713 610.336 283.175 609.983 283.659C609.631 284.121 609.069 284.341 608.298 284.319C607.638 284.297 607.131 284.066 606.779 283.626C606.426 283.186 606.25 282.669 606.25 282.075C606.25 281.195 606.559 280.436 607.175 279.798C607.814 279.138 608.662 278.632 609.719 278.28C610.776 277.906 611.943 277.719 613.221 277.719C615.159 277.719 616.656 278.225 617.714 279.237C618.793 280.227 619.332 281.822 619.332 284.022C619.332 284.77 619.332 285.408 619.332 285.937C619.332 286.465 619.321 286.993 619.299 287.521C619.299 288.049 619.299 288.687 619.299 289.435C619.299 289.743 619.288 290.183 619.266 290.755C619.244 291.305 619.211 291.833 619.167 292.339C619.542 292.295 619.938 292.273 620.356 292.273C620.775 292.251 621.094 292.24 621.314 292.24V294.748H615.071ZM614.707 287.158C614.091 287.224 613.507 287.334 612.956 287.488C612.406 287.642 611.921 287.851 611.503 288.115C611.106 288.379 610.787 288.698 610.545 289.072C610.325 289.446 610.215 289.864 610.215 290.326C610.237 290.942 610.435 291.382 610.809 291.646C611.184 291.91 611.613 292.042 612.098 292.042C612.604 292.042 613.078 291.932 613.518 291.712C613.959 291.492 614.355 291.206 614.707 290.854C614.707 290.634 614.707 290.425 614.707 290.227C614.707 290.007 614.707 289.787 614.707 289.567C614.707 289.171 614.707 288.775 614.707 288.379C614.707 287.961 614.707 287.554 614.707 287.158Z" fill="#2F70D9"/>
<path d="M606.597 317.806C605.584 317.806 604.747 317.531 604.087 316.981C603.426 316.431 603.095 315.716 603.095 314.836C603.095 314.11 603.305 313.56 603.723 313.186C604.142 312.79 604.692 312.592 605.375 312.592C606.08 312.592 606.576 312.779 606.862 313.153C607.17 313.527 607.324 313.934 607.324 314.374C607.324 314.66 607.291 314.88 607.225 315.034C607.159 315.166 607.082 315.287 606.994 315.397C607.06 315.463 607.17 315.496 607.324 315.496C607.919 315.496 608.437 315.001 608.877 314.011C609.318 313.021 609.681 311.601 609.967 309.753C610.254 307.905 610.474 305.683 610.628 303.087L607.489 303.351V300.843H623.711V302.988C623.094 302.988 622.643 303.109 622.356 303.351C622.092 303.593 621.916 303.934 621.828 304.374C621.762 304.814 621.728 305.331 621.728 305.925V312.031C621.728 312.339 621.718 312.779 621.695 313.351C621.674 313.901 621.641 314.429 621.596 314.935L623.744 314.836V317.344H615.055V315.199C615.672 315.199 616.112 315.078 616.376 314.836C616.663 314.594 616.839 314.253 616.905 313.813C616.994 313.351 617.037 312.834 617.037 312.262V306.156C617.037 305.848 617.048 305.441 617.07 304.935C617.093 304.407 617.126 303.912 617.169 303.45H614.692C614.163 303.45 613.789 303.538 613.568 303.714C613.348 303.89 613.216 304.253 613.172 304.803C613.04 307.003 612.798 308.917 612.445 310.545C612.115 312.174 611.675 313.527 611.124 314.605C610.595 315.683 609.945 316.486 609.174 317.014C608.426 317.542 607.567 317.806 606.597 317.806Z" fill="#2F70D9"/>
</svg>
