<svg width="497" height="117" viewBox="0 0 497 117" fill="none" xmlns="http://www.w3.org/2000/svg">
<g clip-path="url(#clip0_6_564)">
<path d="M68.12 48.214C68.12 43.4107 67.2903 39.83 65.631 37.472C63.9717 35.0267 61.8757 33.3673 59.343 32.494C56.8977 31.6207 54.496 31.2277 52.138 31.315L43.623 31.446C41.789 31.446 40.217 31.708 38.907 32.232C37.597 32.6687 36.5927 33.7167 35.894 35.376C35.1953 36.948 34.846 39.437 34.846 42.843V61.183L42.706 60.921C51.2647 60.659 58.164 61.2267 63.404 62.624C68.7313 64.0213 72.7923 66.03 75.587 68.65C78.469 71.1827 80.3903 74.1083 81.351 77.427C82.399 80.7457 82.923 84.239 82.923 87.907C82.923 93.671 81.5257 98.5617 78.731 102.579C76.0237 106.509 72.2683 109.478 67.465 111.487C62.6617 113.496 57.2033 114.5 51.09 114.5H6.55V105.854C8.55867 105.767 10.218 105.505 11.528 105.068C12.9253 104.631 13.9733 103.627 14.672 102.055C15.458 100.483 15.851 97.9503 15.851 94.457V44.284C15.851 41.926 15.8947 39.6553 15.982 37.472C16.1567 35.2887 16.2877 33.6293 16.375 32.494C14.9777 32.5813 13.231 32.6687 11.135 32.756C9.039 32.756 7.51067 32.7997 6.55 32.887V22.8H75.98L76.635 48.214H68.12ZM34.846 93.671C34.846 96.029 34.8023 98.256 34.715 100.352C34.6277 102.448 34.4967 104.064 34.322 105.199C35.894 105.199 37.3787 105.199 38.776 105.199C40.1733 105.199 41.5707 105.199 42.968 105.199C44.3653 105.112 45.719 105.068 47.029 105.068C52.3563 104.806 56.2427 103.059 58.688 99.828C61.1333 96.5967 62.356 92.4483 62.356 87.383C62.356 82.8417 61.5263 79.3483 59.867 76.903C58.2077 74.4577 56.068 72.7547 53.448 71.794C50.9153 70.8333 48.2517 70.353 45.457 70.353C43.2737 70.353 41.396 70.353 39.824 70.353C38.252 70.2657 36.5927 70.3093 34.846 70.484V93.671ZM132.327 114.5C132.153 113.277 132.022 112.273 131.934 111.487C131.934 110.614 131.891 109.609 131.803 108.474C128.834 111.443 125.69 113.539 122.371 114.762C119.053 115.985 115.69 116.596 112.284 116.596C106.695 116.596 102.328 114.937 99.1844 111.618C96.0404 108.299 94.4684 104.151 94.4684 99.173C94.4684 94.981 95.5164 91.4003 97.6124 88.431C99.7957 85.4617 102.634 83.06 106.127 81.226C109.708 79.3047 113.638 77.8637 117.917 76.903C122.284 75.855 126.651 75.2437 131.017 75.069V68.257C131.017 65.9863 130.712 63.934 130.1 62.1C129.576 60.266 128.616 58.825 127.218 57.777C125.908 56.729 124.031 56.2487 121.585 56.336C119.926 56.4233 118.31 56.7727 116.738 57.384C115.166 57.9953 113.813 58.8687 112.677 60.004C113.376 60.79 113.813 61.6633 113.987 62.624C114.162 63.4973 114.249 64.2833 114.249 64.982C114.249 66.7287 113.551 68.5627 112.153 70.484C110.756 72.318 108.529 73.1913 105.472 73.104C102.852 73.0167 100.844 72.0997 99.4464 70.353C98.0491 68.6063 97.3504 66.554 97.3504 64.196C97.3504 60.7027 98.5731 57.6897 101.018 55.157C103.551 52.537 106.913 50.5283 111.105 49.131C115.297 47.6463 119.926 46.904 124.991 46.904C132.677 46.904 138.615 48.9127 142.807 52.93C147.087 56.86 149.226 63.1917 149.226 71.925C149.226 74.8943 149.226 77.427 149.226 79.523C149.226 81.619 149.183 83.715 149.095 85.811C149.095 87.907 149.095 90.4397 149.095 93.409C149.095 94.6317 149.052 96.3783 148.964 98.649C148.877 100.832 148.746 102.928 148.571 104.937C150.056 104.762 151.628 104.675 153.287 104.675C154.947 104.588 156.213 104.544 157.086 104.544V114.5H132.327ZM130.886 84.37C128.441 84.632 126.127 85.0687 123.943 85.68C121.76 86.2913 119.839 87.121 118.179 88.169C116.607 89.217 115.341 90.4833 114.38 91.968C113.507 93.4527 113.07 95.112 113.07 96.946C113.158 99.3913 113.944 101.138 115.428 102.186C116.913 103.234 118.616 103.758 120.537 103.758C122.546 103.758 124.424 103.321 126.17 102.448C127.917 101.575 129.489 100.439 130.886 99.042C130.886 98.1687 130.886 97.339 130.886 96.553C130.886 95.6797 130.886 94.8063 130.886 93.933C130.886 92.361 130.886 90.789 130.886 89.217C130.886 87.5577 130.886 85.942 130.886 84.37ZM202.598 57.515C200.24 57.515 198.493 57.9953 197.358 58.956C196.31 59.9167 195.611 61.2703 195.262 63.017C195 64.7637 194.869 66.816 194.869 69.174V93.409C194.869 94.6317 194.825 96.3783 194.738 98.649C194.65 100.832 194.519 102.928 194.345 104.937C195.742 104.762 197.27 104.675 198.93 104.675C200.676 104.588 201.986 104.544 202.86 104.544V114.5H168.538V105.985C170.983 105.985 172.73 105.505 173.778 104.544C174.826 103.583 175.481 102.23 175.743 100.483C176.092 98.649 176.267 96.5967 176.267 94.326V70.091C176.267 68.8683 176.31 67.1217 176.398 64.851C176.485 62.5803 176.616 60.4843 176.791 58.563C175.393 58.6503 173.865 58.7377 172.206 58.825C170.546 58.9123 169.236 58.956 168.276 58.956V49H202.598V57.515ZM221.986 60.004L228.274 66.554L190.677 102.71L184.258 96.029L221.986 60.004ZM245.042 57.515C242.684 57.515 240.937 57.9953 239.802 58.956C238.754 59.9167 238.055 61.2703 237.706 63.017C237.444 64.7637 237.313 66.816 237.313 69.174V93.409C237.313 94.6317 237.269 96.3783 237.182 98.649C237.094 100.832 236.963 102.928 236.789 104.937C238.186 104.762 239.714 104.675 241.374 104.675C243.12 104.588 244.43 104.544 245.304 104.544V114.5H210.982V105.985C213.427 105.985 215.174 105.505 216.222 104.544C217.27 103.583 217.925 102.23 218.187 100.483C218.536 98.649 218.711 96.5967 218.711 94.326V70.091C218.711 68.8683 218.754 67.1217 218.842 64.851C218.929 62.5803 219.06 60.4843 219.235 58.563C217.837 58.6503 216.309 58.7377 214.65 58.825C212.99 58.9123 211.68 58.956 210.72 58.956V49H245.042V57.515ZM206.266 38.52C200.152 38.52 195.131 37.2973 191.201 34.852C187.358 32.4067 185.437 28.957 185.437 24.503C185.437 22.145 186.048 20.2237 187.271 18.739C188.493 17.167 190.327 16.4247 192.773 16.512C194.869 16.512 196.441 17.036 197.489 18.084C198.624 19.0447 199.41 20.1363 199.847 21.359C200.283 22.5817 200.502 23.5423 200.502 24.241C200.414 25.027 200.24 25.8567 199.978 26.73C199.803 27.516 199.454 28.3893 198.93 29.35C200.152 30.398 201.288 31.1403 202.336 31.577C203.471 31.9263 204.781 32.101 206.266 32.101C207.75 32.101 209.06 31.9263 210.196 31.577C211.331 31.1403 212.466 30.398 213.602 29.35C213.078 28.3893 212.685 27.516 212.423 26.73C212.248 25.8567 212.117 25.027 212.03 24.241C212.03 23.5423 212.204 22.5817 212.554 21.359C212.99 20.1363 213.776 19.0447 214.912 18.084C216.047 17.036 217.619 16.512 219.628 16.512C222.16 16.4247 224.038 17.167 225.261 18.739C226.483 20.2237 227.095 22.145 227.095 24.503C227.095 28.957 225.13 32.4067 221.2 34.852C217.357 37.2973 212.379 38.52 206.266 38.52ZM256.596 114.5V105.985C259.042 105.985 260.788 105.505 261.836 104.544C262.972 103.583 263.67 102.23 263.932 100.483C264.282 98.649 264.456 96.5967 264.456 94.326V70.091C264.456 68.8683 264.5 67.1217 264.587 64.851C264.675 62.5803 264.806 60.4843 264.98 58.563C263.583 58.6503 262.055 58.7377 260.395 58.825C258.736 58.9123 257.426 58.956 256.465 58.956V49H290.787V57.515C288.342 57.515 286.552 57.9953 285.416 58.956C284.368 59.9167 283.713 61.2703 283.451 63.017C283.189 64.7637 283.058 66.816 283.058 69.174V75.331H289.346L298.778 64.458C299.914 63.2353 300.831 62.1873 301.529 61.314C302.315 60.4407 303.101 59.6547 303.887 58.956H296.944V49H326.419V57.384C323.363 57.7333 320.655 58.4757 318.297 59.611C315.939 60.659 313.887 61.9253 312.14 63.41C310.481 64.8947 309.04 66.3357 307.817 67.733L299.433 77.034C300.743 77.7327 302.01 78.6933 303.232 79.916C304.542 81.0513 306.114 82.8417 307.948 85.287L316.725 96.815C317.249 97.4263 317.904 98.256 318.69 99.304C319.564 100.352 320.524 101.4 321.572 102.448C322.62 103.409 323.756 104.238 324.978 104.937C326.201 105.636 327.467 105.985 328.777 105.985V114.5H313.712C310.918 114.5 308.472 113.539 306.376 111.618C304.28 109.609 301.879 106.771 299.171 103.103C297.599 101.007 295.94 98.78 294.193 96.422C292.534 93.9767 290.962 91.706 289.477 89.61C288.08 87.4267 286.945 85.7237 286.071 84.501L283.058 84.632V93.409C283.058 94.6317 283.015 96.3783 282.927 98.649C282.84 100.832 282.709 102.928 282.534 104.937C283.932 104.762 285.46 104.675 287.119 104.675C288.779 104.588 290.089 104.544 291.049 104.544V114.5H256.596ZM376.31 114.5C376.135 113.277 376.004 112.273 375.917 111.487C375.917 110.614 375.873 109.609 375.786 108.474C372.816 111.443 369.672 113.539 366.354 114.762C363.035 115.985 359.673 116.596 356.267 116.596C350.677 116.596 346.311 114.937 343.167 111.618C340.023 108.299 338.451 104.151 338.451 99.173C338.451 94.981 339.499 91.4003 341.595 88.431C343.778 85.4617 346.616 83.06 350.11 81.226C353.69 79.3047 357.62 77.8637 361.9 76.903C366.266 75.855 370.633 75.2437 375 75.069V68.257C375 65.9863 374.694 63.934 374.083 62.1C373.559 60.266 372.598 58.825 371.201 57.777C369.891 56.729 368.013 56.2487 365.568 56.336C363.908 56.4233 362.293 56.7727 360.721 57.384C359.149 57.9953 357.795 58.8687 356.66 60.004C357.358 60.79 357.795 61.6633 357.97 62.624C358.144 63.4973 358.232 64.2833 358.232 64.982C358.232 66.7287 357.533 68.5627 356.136 70.484C354.738 72.318 352.511 73.1913 349.455 73.104C346.835 73.0167 344.826 72.0997 343.429 70.353C342.031 68.6063 341.333 66.554 341.333 64.196C341.333 60.7027 342.555 57.6897 345.001 55.157C347.533 52.537 350.896 50.5283 355.088 49.131C359.28 47.6463 363.908 46.904 368.974 46.904C376.659 46.904 382.598 48.9127 386.79 52.93C391.069 56.86 393.209 63.1917 393.209 71.925C393.209 74.8943 393.209 77.427 393.209 79.523C393.209 81.619 393.165 83.715 393.078 85.811C393.078 87.907 393.078 90.4397 393.078 93.409C393.078 94.6317 393.034 96.3783 392.947 98.649C392.859 100.832 392.728 102.928 392.554 104.937C394.038 104.762 395.61 104.675 397.27 104.675C398.929 104.588 400.195 104.544 401.069 104.544V114.5H376.31ZM374.869 84.37C372.423 84.632 370.109 85.0687 367.926 85.68C365.742 86.2913 363.821 87.121 362.162 88.169C360.59 89.217 359.323 90.4833 358.363 91.968C357.489 93.4527 357.053 95.112 357.053 96.946C357.14 99.3913 357.926 101.138 359.411 102.186C360.895 103.234 362.598 103.758 364.52 103.758C366.528 103.758 368.406 103.321 370.153 102.448C371.899 101.575 373.471 100.439 374.869 99.042C374.869 98.1687 374.869 97.339 374.869 96.553C374.869 95.6797 374.869 94.8063 374.869 93.933C374.869 92.361 374.869 90.789 374.869 89.217C374.869 87.5577 374.869 85.942 374.869 84.37ZM421.69 116.334C417.673 116.334 414.354 115.242 411.734 113.059C409.114 110.876 407.804 108.037 407.804 104.544C407.804 101.662 408.634 99.4787 410.293 97.994C411.952 96.422 414.136 95.636 416.843 95.636C419.638 95.636 421.603 96.3783 422.738 97.863C423.961 99.3477 424.572 100.963 424.572 102.71C424.572 103.845 424.441 104.719 424.179 105.33C423.917 105.854 423.611 106.334 423.262 106.771C423.524 107.033 423.961 107.164 424.572 107.164C426.93 107.164 428.982 105.199 430.729 101.269C432.476 97.339 433.917 91.706 435.052 84.37C436.187 77.034 437.061 68.2133 437.672 57.908L425.227 58.956V49H489.548V57.515C487.103 57.515 485.312 57.9953 484.177 58.956C483.129 59.9167 482.43 61.2703 482.081 63.017C481.819 64.7637 481.688 66.816 481.688 69.174V93.409C481.688 94.6317 481.644 96.3783 481.557 98.649C481.47 100.832 481.339 102.928 481.164 104.937L489.679 104.544V114.5H455.226V105.985C457.671 105.985 459.418 105.505 460.466 104.544C461.601 103.583 462.3 102.23 462.562 100.483C462.911 98.649 463.086 96.5967 463.086 94.326V70.091C463.086 68.8683 463.13 67.2527 463.217 65.244C463.304 63.148 463.435 61.183 463.61 59.349H453.785C451.689 59.349 450.204 59.6983 449.331 60.397C448.458 61.0957 447.934 62.5367 447.759 64.72C447.235 73.4533 446.274 81.0513 444.877 87.514C443.567 93.9767 441.82 99.3477 439.637 103.627C437.541 107.906 434.965 111.094 431.908 113.19C428.939 115.286 425.533 116.334 421.69 116.334Z" fill="#2F70D9"/>
<path d="M457 4L458.402 2.91732C459.475 2.08834 460.994 2.12465 462.04 2.98761V2.98761C463.095 3.85854 464.635 3.87093 465.691 3V3C466.747 2.12907 468.272 2.12907 469.327 3V3C470.383 3.87093 471.908 3.87093 472.964 3V3C474.019 2.12907 475.544 2.12907 476.6 3V3C477.656 3.87093 479.181 3.87093 480.236 3V3C481.292 2.12907 482.817 2.12907 483.873 3V3C484.928 3.87093 486.453 3.87093 487.509 3V3C488.565 2.12907 490.09 2.12944 491.146 3.00037V3.00037C492.201 3.87107 493.726 3.87219 494.782 3.00253L496 2" stroke="#2F70D9" stroke-width="2" stroke-linecap="round"/>
<path d="M329.077 9.78454V13.7309H321.324V27.8711H316V9.78454H329.077ZM350.227 18.8031C350.227 20.1969 350.044 21.467 349.677 22.6134C349.319 23.7515 348.756 24.733 347.987 25.5577C347.218 26.3825 346.23 27.0175 345.023 27.4628C343.816 27.9 342.372 28.1185 340.691 28.1185C339.046 28.1185 337.62 27.9 336.413 27.4628C335.215 27.0175 334.227 26.3865 333.449 25.5701C332.671 24.7454 332.094 23.7598 331.719 22.6134C331.343 21.467 331.155 20.1886 331.155 18.7784C331.155 16.8979 331.491 15.2649 332.161 13.8794C332.841 12.4856 333.887 11.4093 335.3 10.6505C336.712 9.8835 338.519 9.5 340.718 9.5C342.953 9.5 344.768 9.8835 346.163 10.6505C347.567 11.4175 348.595 12.4979 349.248 13.8917C349.901 15.2855 350.227 16.9226 350.227 18.8031ZM336.735 18.8031C336.735 19.8918 336.869 20.8278 337.137 21.6113C337.405 22.3948 337.83 22.9968 338.411 23.4175C338.992 23.8381 339.752 24.0484 340.691 24.0484C341.666 24.0484 342.439 23.8381 343.011 23.4175C343.593 22.9968 344.008 22.3948 344.259 21.6113C344.518 20.8278 344.648 19.8918 344.648 18.8031C344.648 17.17 344.353 15.8794 343.762 14.931C343.172 13.9825 342.158 13.5082 340.718 13.5082C339.761 13.5082 338.988 13.7227 338.398 14.1515C337.817 14.5804 337.392 15.1907 337.124 15.9824C336.864 16.7742 336.735 17.7144 336.735 18.8031ZM362.499 13.533C361.873 13.533 361.314 13.6567 360.822 13.9041C360.331 14.1433 359.91 14.4938 359.562 14.9557C359.213 15.4175 358.945 15.9824 358.757 16.6505C358.578 17.3103 358.489 18.0609 358.489 18.902C358.489 20.0402 358.645 20.9969 358.958 21.7721C359.271 22.5474 359.745 23.133 360.38 23.5289C361.024 23.9248 361.828 24.1226 362.794 24.1226C363.67 24.1226 364.511 24.0113 365.315 23.7886C366.129 23.566 366.947 23.2979 367.77 22.9845V27.1165C366.902 27.471 366.013 27.7268 365.101 27.8835C364.198 28.0402 363.237 28.1185 362.217 28.1185C360.089 28.1185 358.346 27.7309 356.987 26.9556C355.636 26.1722 354.639 25.0876 353.996 23.702C353.361 22.3164 353.043 20.7082 353.043 18.8773C353.043 17.5083 353.249 16.2546 353.66 15.1164C354.081 13.9783 354.693 12.9928 355.498 12.1598C356.303 11.3185 357.295 10.6711 358.475 10.2175C359.665 9.75567 361.024 9.52474 362.553 9.52474C363.5 9.52474 364.497 9.62783 365.543 9.83402C366.598 10.032 367.627 10.3536 368.628 10.799L367.005 14.6463C366.29 14.333 365.566 14.069 364.833 13.8546C364.099 13.6402 363.321 13.533 362.499 13.533ZM380.256 27.8711H374.959V13.7804H370.17V9.78454H385.031V13.7804H380.256V27.8711ZM387.834 9.78454H392.769V18.0609C392.769 18.4319 392.765 18.8237 392.757 19.2361C392.747 19.6402 392.733 20.0402 392.715 20.4361C392.698 20.832 392.676 21.2072 392.649 21.5618C392.622 21.9165 392.59 22.2299 392.555 22.502H392.662L400.736 9.78454H406.812V27.8711H401.862V20.0402C401.862 19.702 401.868 19.3185 401.876 18.8897C401.894 18.4608 401.911 18.0196 401.929 17.5659C401.957 17.1124 401.983 16.6752 402.01 16.2547C402.046 15.8339 402.082 15.467 402.117 15.1535H401.997L393.923 27.8711H387.834V9.78454ZM427.868 27.8711H422.544V20.4979H416.388V27.8711H411.064V9.78454H416.388V16.4896H422.544V9.78454H427.868V27.8711ZM432.12 9.78454H437.056V18.0609C437.056 18.4319 437.051 18.8237 437.042 19.2361C437.033 19.6402 437.019 20.0402 437.001 20.4361C436.983 20.832 436.961 21.2072 436.935 21.5618C436.908 21.9165 436.876 22.2299 436.841 22.502H436.948L445.022 9.78454H451.098V27.8711H446.149V20.0402C446.149 19.702 446.153 19.3185 446.162 18.8897C446.179 18.4608 446.197 18.0196 446.215 17.5659C446.243 17.1124 446.269 16.6752 446.296 16.2547C446.332 15.8339 446.368 15.467 446.403 15.1535H446.282L438.208 27.8711H432.12V9.78454ZM475.561 23.8628V33.5H470.398V27.8711H455.349V9.78454H460.674V23.8628H466.12V9.78454H471.444V23.8628H475.561ZM490.207 27.8711L489.242 24.4814H482.871L481.878 27.8711H476.057L482.454 9.7103H489.523L496 27.8711H490.207ZM488.142 20.4732L487.297 17.5041C487.206 17.1825 487.077 16.7248 486.907 16.1309C486.738 15.5289 486.568 14.9103 486.397 14.2753C486.237 13.632 486.112 13.1041 486.022 12.6917C485.941 13.1041 485.826 13.6154 485.674 14.2257C485.531 14.8279 485.378 15.4258 485.218 16.0195C485.065 16.6134 484.932 17.1082 484.815 17.5041L483.971 20.4732H488.142Z" fill="#686868"/>
</g>
<defs>
<clipPath id="clip0_6_564">
<rect width="497" height="116" fill="white" transform="translate(0 0.5)"/>
</clipPath>
</defs>
</svg>
