<svg width="136" height="14" viewBox="0 0 136 14" fill="none" xmlns="http://www.w3.org/2000/svg">
<path d="M3 10.3333L11.2605 3.95231C12.7388 2.81042 14.8105 2.84365 16.2513 4.03235L23.3636 9.89994C24.8416 11.1193 26.9766 11.1193 28.4546 9.89994L35.4848 4.10006C36.9628 2.88072 39.0978 2.88072 40.5758 4.10006L47.606 9.89994C49.084 11.1193 51.2191 11.1193 52.697 9.89994L59.7272 4.10006C61.2052 2.88072 63.3403 2.88072 64.8183 4.10006L71.8484 9.89994C73.3264 11.1193 75.4615 11.1193 76.9395 9.89994L83.9696 4.10006C85.4476 2.88072 87.5827 2.88072 89.0607 4.10006L96.0908 9.89994C97.5688 11.1193 99.7039 11.1193 101.182 9.89994L108.212 4.10006C109.69 2.88072 111.825 2.88072 113.303 4.10006L120.336 9.90203C121.813 11.1204 123.946 11.1215 125.424 9.90453L133 3.66667" stroke="#686868" stroke-width="5" stroke-linecap="round"/>
</svg>
