<svg width="330" height="46" viewBox="0 0 330 46" fill="none" xmlns="http://www.w3.org/2000/svg">
<path d="M18.15 36.8C14.9833 36.8 12.2833 36.2667 10.05 35.2C7.85 34.1333 6.06667 32.7167 4.7 30.95C3.33333 29.15 2.33333 27.1667 1.7 25C1.06667 22.8333 0.75 20.6667 0.75 18.5C0.75 16.4 1.1 14.2833 1.8 12.15C2.53333 9.98333 3.61667 8 5.05 6.2C6.51667 4.4 8.35 2.95 10.55 1.85C12.75 0.749999 15.3333 0.199999 18.3 0.199999C21.3333 0.199999 23.95 0.749999 26.15 1.85C28.35 2.95 30.15 4.41666 31.55 6.25C32.95 8.05 33.9833 10.0167 34.65 12.15C35.35 14.2833 35.7 16.4 35.7 18.5C35.7 20.5667 35.3333 22.6667 34.6 24.8C33.9 26.9333 32.8167 28.9167 31.35 30.75C29.9167 32.55 28.1 34.0167 25.9 35.15C23.7 36.25 21.1167 36.8 18.15 36.8ZM18.7 33.15C20.4333 33.15 21.8833 32.7333 23.05 31.9C24.2167 31.0333 25.15 29.9167 25.85 28.55C26.55 27.1833 27.05 25.7 27.35 24.1C27.65 22.4667 27.8 20.8833 27.8 19.35C27.8 17.05 27.6 14.95 27.2 13.05C26.8 11.15 26.1833 9.51666 25.35 8.15C24.5167 6.75 23.45 5.68333 22.15 4.95C20.8833 4.18333 19.3833 3.81666 17.65 3.85C15.95 3.88333 14.5167 4.35 13.35 5.25C12.1833 6.11666 11.25 7.25 10.55 8.65C9.85 10.0167 9.35 11.5167 9.05 13.15C8.75 14.7833 8.6 16.3667 8.6 17.9C8.6 19.4667 8.76667 21.1333 9.1 22.9C9.46667 24.6667 10.0333 26.3333 10.8 27.9C11.5667 29.4667 12.6 30.7333 13.9 31.7C15.2 32.6667 16.8 33.15 18.7 33.15ZM55.7125 36V32.75C56.6458 32.75 57.3125 32.5667 57.7125 32.2C58.1458 31.8333 58.4125 31.3167 58.5125 30.65C58.6458 29.95 58.7125 29.1667 58.7125 28.3V19.05C58.7125 18.5833 58.7292 17.9167 58.7625 17.05C58.7958 16.1833 58.8292 15.3833 58.8625 14.65C58.3292 14.6833 57.7458 14.7167 57.1125 14.75C56.5125 14.7833 56.0292 14.8 55.6625 14.8V11H76.5625L76.7625 20.1H73.5125C73.5125 18.7 73.3458 17.6333 73.0125 16.9C72.7125 16.1333 72.2292 15.6167 71.5625 15.35C70.9292 15.05 70.1125 14.9 69.1125 14.9H65.8125V27.95C65.8125 28.4167 65.7958 29.0833 65.7625 29.95C65.7292 30.7833 65.6792 31.5833 65.6125 32.35L69.8625 32.2V36H55.7125ZM94.1672 36.8C91.7672 36.8 89.6005 36.2833 87.6672 35.25C85.7339 34.2167 84.2005 32.75 83.0672 30.85C81.9672 28.9167 81.4172 26.65 81.4172 24.05C81.4172 21.2833 81.9839 18.8667 83.1172 16.8C84.2839 14.7 85.8172 13.0833 87.7172 11.95C89.6505 10.7833 91.7505 10.2 94.0172 10.2C96.4172 10.2 98.5672 10.7167 100.467 11.75C102.367 12.7833 103.867 14.2667 104.967 16.2C106.067 18.1 106.617 20.3833 106.617 23.05C106.617 25.85 106.084 28.2833 105.017 30.35C103.951 32.4167 102.484 34.0167 100.617 35.15C98.7505 36.25 96.6005 36.8 94.1672 36.8ZM94.3672 33.25C95.7005 33.2167 96.7005 32.75 97.3672 31.85C98.0672 30.95 98.5505 29.8167 98.8172 28.45C99.0839 27.0833 99.2172 25.7 99.2172 24.3C99.2172 23.0667 99.1172 21.8167 98.9172 20.55C98.7505 19.2833 98.4672 18.1333 98.0672 17.1C97.6672 16.0667 97.1172 15.2333 96.4172 14.6C95.7505 13.9667 94.9172 13.6667 93.9172 13.7C92.6172 13.7333 91.5839 14.2 90.8172 15.1C90.0839 16 89.5505 17.1333 89.2172 18.5C88.9172 19.8333 88.7672 21.2333 88.7672 22.7C88.7672 24.4 88.9505 26.0667 89.3172 27.7C89.6839 29.3333 90.2672 30.6833 91.0672 31.75C91.9005 32.7833 93.0005 33.2833 94.3672 33.25ZM123.538 36.8C121.304 36.8 119.254 36.3 117.388 35.3C115.521 34.3 114.021 32.85 112.888 30.95C111.788 29.05 111.238 26.75 111.238 24.05C111.238 22.15 111.554 20.3667 112.188 18.7C112.821 17.0333 113.704 15.5667 114.838 14.3C116.004 13.0333 117.371 12.0333 118.938 11.3C120.538 10.5667 122.304 10.2 124.238 10.2C126.371 10.2 128.138 10.5333 129.538 11.2C130.971 11.8333 132.038 12.6833 132.738 13.75C133.471 14.7833 133.838 15.8833 133.838 17.05C133.838 18.0167 133.538 18.8833 132.938 19.65C132.371 20.3833 131.554 20.7667 130.488 20.8C129.221 20.8333 128.338 20.4833 127.838 19.75C127.338 18.9833 127.088 18.25 127.088 17.55C127.088 17.25 127.138 16.9 127.238 16.5C127.338 16.0667 127.488 15.6833 127.688 15.35C127.454 14.85 127.104 14.4833 126.638 14.25C126.171 14.0167 125.688 13.8667 125.188 13.8C124.721 13.7 124.338 13.6667 124.038 13.7C122.438 13.8 121.121 14.6 120.088 16.1C119.054 17.6 118.538 19.7667 118.538 22.6C118.538 24.2667 118.738 25.8333 119.138 27.3C119.571 28.7333 120.271 29.9167 121.238 30.85C122.204 31.7833 123.504 32.2833 125.138 32.35C126.538 32.3833 127.904 32.05 129.238 31.35C130.571 30.65 131.704 29.7 132.638 28.5L134.937 30.75C133.738 32.4167 132.488 33.6833 131.188 34.55C129.888 35.4167 128.588 36 127.288 36.3C126.021 36.6333 124.771 36.8 123.538 36.8ZM143.616 36V32.75C144.55 32.75 145.216 32.5667 145.616 32.2C146.05 31.8333 146.316 31.3167 146.416 30.65C146.55 29.95 146.616 29.1667 146.616 28.3V19.05C146.616 18.5833 146.633 17.9667 146.666 17.2C146.7 16.4 146.733 15.6333 146.766 14.9H145.516C144.016 14.9 142.9 15.2833 142.166 16.05C141.433 16.7833 141.066 18.1333 141.066 20.1H137.816L138.016 11H162.266L162.466 20.1H159.216C159.216 18.1333 158.85 16.7833 158.116 16.05C157.383 15.2833 156.266 14.9 154.766 14.9H153.666V27.95C153.666 28.4167 153.65 29.0833 153.616 29.95C153.583 30.7833 153.533 31.5833 153.466 32.35L156.716 32.2V36H143.616ZM179.788 14.25C178.888 14.25 178.222 14.4333 177.788 14.8C177.388 15.1667 177.122 15.6833 176.988 16.35C176.888 17.0167 176.838 17.8 176.838 18.7V27.95C176.838 28.4167 176.822 29.0833 176.788 29.95C176.755 30.7833 176.705 31.5833 176.638 32.35C177.172 32.2833 177.755 32.25 178.388 32.25C179.055 32.2167 179.555 32.2 179.888 32.2V36H166.788V32.75C167.722 32.75 168.388 32.5667 168.788 32.2C169.188 31.8333 169.438 31.3167 169.538 30.65C169.672 29.95 169.738 29.1667 169.738 28.3V19.05C169.738 18.5833 169.755 17.9167 169.788 17.05C169.822 16.1833 169.872 15.3833 169.938 14.65C169.405 14.6833 168.822 14.7167 168.188 14.75C167.555 14.7833 167.055 14.8 166.688 14.8V11H179.788V14.25ZM187.188 15.2L189.588 17.7L175.238 31.5L172.788 28.95L187.188 15.2ZM195.988 14.25C195.088 14.25 194.422 14.4333 193.988 14.8C193.588 15.1667 193.322 15.6833 193.188 16.35C193.088 17.0167 193.038 17.8 193.038 18.7V27.95C193.038 28.4167 193.022 29.0833 192.988 29.95C192.955 30.7833 192.905 31.5833 192.838 32.35C193.372 32.2833 193.955 32.25 194.588 32.25C195.255 32.2167 195.755 32.2 196.088 32.2V36H182.988V32.75C183.922 32.75 184.588 32.5667 184.988 32.2C185.388 31.8333 185.638 31.3167 185.738 30.65C185.872 29.95 185.938 29.1667 185.938 28.3V19.05C185.938 18.5833 185.955 17.9167 185.988 17.05C186.022 16.1833 186.072 15.3833 186.138 14.65C185.605 14.6833 185.022 14.7167 184.388 14.75C183.755 14.7833 183.255 14.8 182.888 14.8V11H195.988V14.25ZM214.398 14.25C213.465 14.25 212.782 14.4333 212.348 14.8C211.948 15.1667 211.682 15.6833 211.548 16.35C211.448 17.0167 211.398 17.8 211.398 18.7V27.95C211.398 28.4167 211.382 29.0833 211.348 29.95C211.315 30.7833 211.265 31.5833 211.198 32.35L214.448 32.2V36H201.298V32.75C202.232 32.75 202.898 32.5667 203.298 32.2C203.732 31.8333 203.998 31.3167 204.098 30.65C204.232 29.95 204.298 29.1667 204.298 28.3V19.05C204.298 18.5833 204.315 17.9167 204.348 17.05C204.382 16.1833 204.415 15.3833 204.448 14.65L201.248 14.8V11H214.398V14.25ZM230.298 14.25C229.365 14.25 228.682 14.4333 228.248 14.8C227.848 15.1667 227.582 15.6833 227.448 16.35C227.348 17.0167 227.298 17.8 227.298 18.7V27.95C227.298 28.4167 227.282 29.0833 227.248 29.95C227.248 30.7833 227.215 31.5833 227.148 32.35L230.398 32.2V36H217.198V32.75C218.132 32.75 218.798 32.5667 219.198 32.2C219.632 31.8333 219.898 31.3167 219.998 30.65C220.132 29.95 220.198 29.1667 220.198 28.3V19.05C220.198 18.5833 220.215 17.9167 220.248 17.05C220.282 16.1833 220.332 15.3833 220.398 14.65L217.148 14.8V11H230.298V14.25ZM208.198 21.3H221.598V25.15L208.198 25.25V21.3ZM248.999 14.25C248.099 14.25 247.433 14.4333 246.999 14.8C246.599 15.1667 246.333 15.6833 246.199 16.35C246.099 17.0167 246.049 17.8 246.049 18.7V27.95C246.049 28.4167 246.033 29.0833 245.999 29.95C245.966 30.7833 245.916 31.5833 245.849 32.35C246.383 32.2833 246.966 32.25 247.599 32.25C248.266 32.2167 248.766 32.2 249.099 32.2V36H235.999V32.75C236.933 32.75 237.599 32.5667 237.999 32.2C238.399 31.8333 238.649 31.3167 238.749 30.65C238.883 29.95 238.949 29.1667 238.949 28.3V19.05C238.949 18.5833 238.966 17.9167 238.999 17.05C239.033 16.1833 239.083 15.3833 239.149 14.65C238.616 14.6833 238.033 14.7167 237.399 14.75C236.766 14.7833 236.266 14.8 235.899 14.8V11H248.999V14.25ZM256.399 15.2L258.799 17.7L244.449 31.5L241.999 28.95L256.399 15.2ZM265.199 14.25C264.299 14.25 263.633 14.4333 263.199 14.8C262.799 15.1667 262.533 15.6833 262.399 16.35C262.299 17.0167 262.249 17.8 262.249 18.7V27.95C262.249 28.4167 262.233 29.0833 262.199 29.95C262.166 30.7833 262.116 31.5833 262.049 32.35C262.583 32.2833 263.166 32.25 263.799 32.25C264.466 32.2167 264.966 32.2 265.299 32.2V36H252.199V32.75C253.133 32.75 253.799 32.5667 254.199 32.2C254.599 31.8333 254.849 31.3167 254.949 30.65C255.083 29.95 255.149 29.1667 255.149 28.3V19.05C255.149 18.5833 255.166 17.9167 255.199 17.05C255.233 16.1833 255.283 15.3833 255.349 14.65C254.816 14.6833 254.233 14.7167 253.599 14.75C252.966 14.7833 252.466 14.8 252.099 14.8V11H265.199V14.25ZM297.959 45.15C297.993 42.9167 297.843 41.1333 297.509 39.8C297.209 38.4667 296.743 37.5 296.109 36.9C295.509 36.3 294.776 36 293.909 36H270.509V32.75C271.443 32.75 272.109 32.5667 272.509 32.2C272.909 31.8333 273.159 31.3167 273.259 30.65C273.393 29.95 273.459 29.1667 273.459 28.3V19.05C273.459 18.5833 273.476 17.9167 273.509 17.05C273.543 16.1833 273.593 15.3833 273.659 14.65L270.409 14.8V11H283.559V14.25C282.626 14.25 281.943 14.4333 281.509 14.8C281.109 15.1667 280.843 15.6833 280.709 16.35C280.609 17.0167 280.559 17.8 280.559 18.7V28C280.559 28.4667 280.543 29.1 280.509 29.9C280.476 30.6667 280.426 31.4 280.359 32.1H286.159C287.093 32.1 287.759 31.95 288.159 31.65C288.593 31.3167 288.859 30.8667 288.959 30.3C289.093 29.7333 289.159 29.0833 289.159 28.35V19.05C289.159 18.5833 289.176 17.9167 289.209 17.05C289.243 16.1833 289.293 15.3833 289.359 14.65L286.109 14.8V11H299.259V14.25C298.326 14.25 297.643 14.4333 297.209 14.8C296.809 15.1667 296.543 15.6833 296.409 16.35C296.309 17.0167 296.259 17.8 296.259 18.7V27.95C296.259 28.4167 296.243 29.0833 296.209 29.95C296.209 30.7833 296.176 31.5833 296.109 32.35L301.209 32.1V45.15H297.959ZM317.939 36.8C315.506 36.8 313.356 36.2667 311.489 35.2C309.622 34.1 308.172 32.5667 307.139 30.6C306.106 28.6 305.589 26.25 305.589 23.55C305.589 21.2167 306.106 19.0333 307.139 17C308.172 14.9667 309.622 13.3333 311.489 12.1C313.389 10.8333 315.589 10.2 318.089 10.2C319.489 10.2 320.856 10.4 322.189 10.8C323.522 11.1667 324.722 11.8167 325.789 12.75C326.889 13.6833 327.756 14.95 328.389 16.55C329.056 18.15 329.372 20.15 329.339 22.55L312.939 22.85C312.939 24.65 313.156 26.2667 313.589 27.7C314.056 29.1333 314.806 30.2667 315.839 31.1C316.872 31.9333 318.256 32.35 319.989 32.35C320.656 32.35 321.406 32.2333 322.239 32C323.106 31.7667 323.972 31.3833 324.839 30.85C325.739 30.2833 326.572 29.5333 327.339 28.6L329.589 30.7C328.389 32.4 327.106 33.7 325.739 34.6C324.372 35.4667 323.006 36.05 321.639 36.35C320.306 36.65 319.072 36.8 317.939 36.8ZM313.239 19.35H322.439C322.406 17.95 322.206 16.85 321.839 16.05C321.506 15.2167 321.039 14.6167 320.439 14.25C319.839 13.8833 319.139 13.7 318.339 13.7C316.872 13.7 315.722 14.2333 314.889 15.3C314.056 16.3333 313.506 17.6833 313.239 19.35Z" fill="#2F70D9"/>
</svg>
